<svg width="350" height="120" viewBox="0 0 350 120" fill="none" xmlns="http://www.w3.org/2000/svg">
<g filter="url(#f0)">
<path d="M392.858 -103.257C407.768 -43.0022 322.596 29.9114 202.619 59.6004C82.6434 89.2894 -26.7038 64.5111 -41.6142 4.25665C-56.5246 -55.9978 28.6479 -128.911 148.624 -158.6C268.6 -188.289 377.947 -163.511 392.858 -103.257Z" fill="#FF0085"/>
<path d="M351.48 -93.0174C362.578 -48.1663 291.684 7.96257 193.132 32.35C94.58 56.7373 5.69071 40.1482 -5.40803 -4.70284C-16.5068 -49.5539 54.3879 -105.683 152.94 -130.07C251.491 -154.458 340.381 -137.868 351.48 -93.0174Z" fill="#FF00F5"/>
<path d="M311.013 -86.4858C317.627 -59.7564 267.798 -24.4305 199.717 -7.58313C131.635 9.26419 71.0819 1.25316 64.4675 -25.4763C57.8531 -52.2057 107.682 -87.5316 175.764 -104.379C243.845 -121.226 304.399 -113.215 311.013 -86.4858Z" fill="#00BEAE"/>
<path d="M252.394 -71.98C255.645 -58.8419 227.791 -40.6462 190.179 -31.339C152.568 -22.0317 119.442 -25.1373 116.191 -38.2755C112.94 -51.4137 140.794 -69.6093 178.406 -78.9166C216.017 -88.2238 249.143 -85.1182 252.394 -71.98Z" fill="#00FE96"/>
</g>
<defs>
<filter id="f0" x="-97.4082" y="-225.252" width="546.06" height="351.505" filterUnits="userSpaceOnUse" color-interpolation-filters="sRGB"><feFlood flood-opacity="0" result="bg"/><feBlend mode="normal" in="SourceGraphic" in2="bg" result="shape"/><feGaussianBlur stdDeviation="27.05"/></filter>
</defs>
</svg>
