<svg width="390" height="165" viewBox="0 0 390 165" fill="none" xmlns="http://www.w3.org/2000/svg">
<g filter="url(#filter0_f_258_561)">
<path d="M190.5 45.7597L241.412 73.1313L379 83.2597L241.412 93.3881L190.5 120.76L139.588 93.3881L2 83.2597L139.588 73.1313L190.5 45.7597Z" fill="#00BEAE"/>
<path d="M184.5 56.2597L224.879 77.7921L334 85.7597L224.879 93.7274L184.5 115.26L144.121 93.7274L35 85.7597L144.121 77.7921L184.5 56.2597Z" fill="#00FE96"/>
<path d="M188.5 56.2597L224.827 75.6023L323 82.7597L224.827 89.9171L188.5 109.26L152.173 89.9171L54 82.7597L152.173 75.6023L188.5 56.2597Z" fill="#D9D9D9"/>
</g>
<g filter="url(#filter1_f_258_561)">
<ellipse cx="120.638" cy="27.3763" rx="15.644" ry="5.72055" transform="rotate(-17.3114 120.638 27.3763)" fill="#00BEAE"/>
<ellipse cx="120.47" cy="26.8391" rx="13.2123" ry="4.03252" transform="rotate(-17.3114 120.47 26.8391)" fill="#00FE96"/>
<ellipse cx="122.495" cy="32.3613" rx="9.32153" ry="2.43827" transform="rotate(-17.3114 122.495 32.3613)" fill="#D9D9D9"/>
</g>
<g filter="url(#filter2_f_258_561)">
<ellipse cx="268.285" cy="40.7093" rx="7.29049" ry="3.9677" transform="rotate(25.1602 268.285 40.7093)" fill="#00BEAE"/>
<ellipse cx="275.078" cy="34.3562" rx="6.15726" ry="2.7969" transform="rotate(25.1602 275.078 34.3562)" fill="#00FE96"/>
<ellipse cx="275.05" cy="34.415" rx="4.34408" ry="1.69115" transform="rotate(25.1602 275.05 34.415)" fill="#D9D9D9"/>
</g>
<g filter="url(#filter3_f_258_561)">
<ellipse cx="328.041" cy="128.222" rx="21.2408" ry="2.38521" transform="rotate(-17.3114 328.041 128.222)" fill="#00BEAE"/>
<ellipse cx="333.683" cy="124.076" rx="17.9391" ry="1.68138" transform="rotate(-17.3114 333.683 124.076)" fill="#00FE96"/>
<ellipse cx="331.105" cy="122.128" rx="12.6564" ry="1.01665" transform="rotate(-17.3114 331.105 122.128)" fill="#D9D9D9"/>
</g>
<g filter="url(#filter4_f_258_561)">
<ellipse cx="57.8388" cy="131.138" rx="23.3005" ry="5.00587" transform="rotate(4.64938 57.8388 131.138)" fill="#00BEAE"/>
<ellipse cx="61.9157" cy="135.542" rx="19.6786" ry="3.52873" transform="rotate(4.64938 61.9157 135.542)" fill="#00FE96"/>
<ellipse cx="54.6026" cy="133.264" rx="13.8837" ry="2.13365" transform="rotate(4.64938 54.6026 133.264)" fill="#D9D9D9"/>
</g>
<path d="M25.924 81.2598L27.964 81.2598L27.964 90.2598L25.924 90.2598L25.924 81.2598ZM33.124 81.2598L35.164 81.2598L35.164 90.2598L33.124 90.2598L33.124 81.2598ZM27.04 84.8118L34.024 84.8118L34.024 86.5998L27.04 86.5998L27.04 84.8118ZM36.8419 83.3598L37.8379 83.5518L38.8459 83.3598L38.8459 90.2598L36.8419 90.2598L36.8419 83.3598ZM37.8379 82.6518C37.4779 82.6518 37.1819 82.5598 36.9499 82.3758C36.7259 82.1838 36.6139 81.9318 36.6139 81.6198C36.6139 81.2998 36.7259 81.0478 36.9499 80.8638C37.1819 80.6718 37.4779 80.5758 37.8379 80.5758C38.2059 80.5758 38.5019 80.6718 38.7259 80.8638C38.9499 81.0478 39.0619 81.2998 39.0619 81.6198C39.0619 81.9318 38.9499 82.1838 38.7259 82.3758C38.5019 82.5598 38.2059 82.6518 37.8379 82.6518ZM40.3576 81.0198L42.3616 81.0198L42.3616 90.2598L40.3576 90.2598L40.3576 81.0198ZM43.8732 81.0198L45.8772 81.0198L45.8772 85.6038L45.6012 86.1438L45.6012 87.6318L45.8772 88.1838L45.8772 90.2598L43.8732 90.2598L43.8732 81.0198ZM45.1692 86.8518C45.2972 86.1238 45.5332 85.4918 45.8772 84.9558C46.2212 84.4118 46.6492 83.9918 47.1612 83.6958C47.6732 83.3998 48.2492 83.2518 48.8892 83.2518C49.5532 83.2518 50.1412 83.4038 50.6532 83.7078C51.1652 84.0038 51.5652 84.4238 51.8532 84.9678C52.1412 85.5038 52.2852 86.1318 52.2852 86.8518C52.2852 87.5638 52.1412 88.1918 51.8532 88.7358C51.5652 89.2718 51.1652 89.6918 50.6532 89.9958C50.1412 90.2918 49.5532 90.4398 48.8892 90.4398C48.2492 90.4398 47.6732 90.2918 47.1612 89.9958C46.6492 89.6998 46.2212 89.2838 45.8772 88.7478C45.5412 88.2038 45.3052 87.5718 45.1692 86.8518ZM50.2452 86.8518C50.2452 86.4518 50.1612 86.0998 49.9932 85.7958C49.8332 85.4838 49.6092 85.2438 49.3212 85.0758C49.0332 84.8998 48.7052 84.8118 48.3372 84.8118C47.9612 84.8118 47.6052 84.8998 47.2692 85.0758C46.9332 85.2438 46.6372 85.4838 46.3812 85.7958C46.1332 86.0998 45.9372 86.4518 45.7932 86.8518C45.9372 87.2518 46.1332 87.6038 46.3812 87.9078C46.6372 88.2118 46.9332 88.4518 47.2692 88.6278C47.6052 88.7958 47.9612 88.8798 48.3372 88.8798C48.7052 88.8798 49.0332 88.7958 49.3212 88.6278C49.6092 88.4518 49.8332 88.2118 49.9932 87.9078C50.1612 87.6038 50.2452 87.2518 50.2452 86.8518ZM53.1117 83.4318L55.1397 83.4318L55.5477 85.8918L55.5477 90.2598L53.5437 90.2598L53.5437 85.6758L53.1117 83.4318ZM58.8717 83.3598L58.8717 85.0878C58.6637 85.0398 58.4557 85.0038 58.2477 84.9798C58.0397 84.9558 57.8437 84.9438 57.6597 84.9438C57.2597 84.9438 56.8997 85.0278 56.5797 85.1958C56.2597 85.3638 56.0077 85.6238 55.8237 85.9758C55.6397 86.3278 55.5477 86.7718 55.5477 87.3078L55.1277 86.8038C55.1757 86.3158 55.2637 85.8598 55.3917 85.4358C55.5197 85.0038 55.6957 84.6278 55.9197 84.3078C56.1517 83.9798 56.4357 83.7238 56.7717 83.5398C57.1077 83.3478 57.5077 83.2518 57.9717 83.2518C58.1237 83.2518 58.2757 83.2638 58.4277 83.2878C58.5877 83.3038 58.7357 83.3278 58.8717 83.3598ZM63.4283 90.4398C62.6203 90.4398 61.8963 90.2918 61.2563 89.9958C60.6243 89.6918 60.1243 89.2678 59.7563 88.7238C59.3963 88.1798 59.2163 87.5478 59.2163 86.8278C59.2163 86.1158 59.3883 85.4918 59.7323 84.9558C60.0843 84.4198 60.5643 84.0038 61.1723 83.7078C61.7803 83.4038 62.4723 83.2518 63.2483 83.2518C64.0403 83.2518 64.7203 83.4278 65.2883 83.7798C65.8563 84.1238 66.2923 84.6118 66.5963 85.2438C66.9083 85.8758 67.0643 86.6198 67.0643 87.4758L60.8243 87.4758L60.8243 86.1438L65.9843 86.1438L65.2043 86.6238C65.1723 86.2238 65.0723 85.8838 64.9043 85.6038C64.7443 85.3238 64.5243 85.1078 64.2443 84.9558C63.9643 84.8038 63.6363 84.7278 63.2603 84.7278C62.8523 84.7278 62.4963 84.8118 62.1923 84.9798C61.8963 85.1398 61.6643 85.3678 61.4963 85.6638C61.3363 85.9518 61.2563 86.2918 61.2563 86.6838C61.2563 87.1558 61.3603 87.5598 61.5683 87.8958C61.7763 88.2318 62.0803 88.4878 62.4803 88.6638C62.8803 88.8398 63.3643 88.9278 63.9323 88.9278C64.4443 88.9278 64.9603 88.8558 65.4803 88.7118C66.0003 88.5598 66.4683 88.3478 66.8843 88.0758L66.8843 89.4198C66.4363 89.7398 65.9123 89.9918 65.3123 90.1758C64.7203 90.3518 64.0923 90.4398 63.4283 90.4398ZM67.889 83.4318L69.893 83.4318L70.325 86.0358L70.325 90.2598L68.321 90.2598L68.321 85.7358L67.889 83.4318ZM72.929 83.2518C73.577 83.2518 74.129 83.3838 74.585 83.6478C75.041 83.9038 75.389 84.2718 75.629 84.7518C75.869 85.2318 75.989 85.8038 75.989 86.4678L75.989 90.2598L73.985 90.2598L73.985 86.7678C73.985 86.1518 73.837 85.6878 73.541 85.3758C73.245 85.0558 72.813 84.8958 72.245 84.8958C71.861 84.8958 71.521 84.9838 71.225 85.1598C70.937 85.3278 70.713 85.5638 70.553 85.8678C70.401 86.1718 70.325 86.5358 70.325 86.9598L69.665 86.6118C69.745 85.8918 69.937 85.2838 70.241 84.7878C70.545 84.2918 70.929 83.9118 71.393 83.6478C71.857 83.3838 72.369 83.2518 72.929 83.2518ZM80.4708 81.0198L82.4748 81.0198L82.4748 90.2598L80.4708 90.2598L80.4708 81.0198ZM85.0788 83.2518C85.7268 83.2518 86.2788 83.3838 86.7348 83.6478C87.1908 83.9038 87.5388 84.2718 87.7788 84.7518C88.0188 85.2318 88.1388 85.8038 88.1388 86.4678L88.1388 90.2598L86.1348 90.2598L86.1348 86.7678C86.1348 86.1518 85.9868 85.6878 85.6908 85.3758C85.3948 85.0558 84.9668 84.8958 84.4068 84.8958C84.0148 84.8958 83.6708 84.9838 83.3748 85.1598C83.0868 85.3278 82.8628 85.5638 82.7028 85.8678C82.5508 86.1718 82.4748 86.5358 82.4748 86.9598L81.8148 86.6118C81.9028 85.8918 82.0948 85.2838 82.3908 84.7878C82.6948 84.2918 83.0788 83.9118 83.5428 83.6478C84.0068 83.3838 84.5188 83.2518 85.0788 83.2518ZM93.4049 90.4398C92.5969 90.4398 91.8729 90.2918 91.2329 89.9958C90.6009 89.6918 90.1009 89.2678 89.7329 88.7238C89.3729 88.1798 89.1929 87.5478 89.1929 86.8278C89.1929 86.1158 89.3649 85.4918 89.7089 84.9558C90.0609 84.4198 90.5409 84.0038 91.1489 83.7078C91.7569 83.4038 92.4489 83.2518 93.2249 83.2518C94.0169 83.2518 94.6969 83.4278 95.2649 83.7798C95.8329 84.1238 96.2689 84.6118 96.5729 85.2438C96.8849 85.8758 97.0409 86.6198 97.0409 87.4758L90.8009 87.4758L90.8009 86.1438L95.9609 86.1438L95.1809 86.6238C95.1489 86.2238 95.0489 85.8838 94.8809 85.6038C94.7209 85.3238 94.5009 85.1078 94.2209 84.9558C93.9409 84.8038 93.6129 84.7278 93.2369 84.7278C92.8289 84.7278 92.4729 84.8118 92.1689 84.9798C91.8729 85.1398 91.6409 85.3678 91.4729 85.6638C91.3129 85.9518 91.2329 86.2918 91.2329 86.6838C91.2329 87.1558 91.3369 87.5598 91.5449 87.8958C91.7529 88.2318 92.0569 88.4878 92.4569 88.6638C92.8569 88.8398 93.3409 88.9278 93.9089 88.9278C94.4209 88.9278 94.9369 88.8558 95.4569 88.7118C95.9769 88.5598 96.4449 88.3478 96.8609 88.0758L96.8609 89.4198C96.4129 89.7398 95.8889 89.9918 95.2889 90.1758C94.6969 90.3518 94.0689 90.4398 93.4049 90.4398ZM102.065 90.4398C101.257 90.4398 100.533 90.2918 99.893 89.9958C99.261 89.6918 98.761 89.2678 98.393 88.7238C98.033 88.1798 97.853 87.5478 97.853 86.8278C97.853 86.1158 98.025 85.4918 98.369 84.9558C98.721 84.4198 99.201 84.0038 99.809 83.7078C100.417 83.4038 101.109 83.2518 101.885 83.2518C102.677 83.2518 103.357 83.4278 103.925 83.7798C104.493 84.1238 104.929 84.6118 105.233 85.2438C105.545 85.8758 105.701 86.6198 105.701 87.4758L99.461 87.4758L99.461 86.1438L104.621 86.1438L103.841 86.6238C103.809 86.2238 103.709 85.8838 103.541 85.6038C103.381 85.3238 103.161 85.1078 102.881 84.9558C102.601 84.8038 102.273 84.7278 101.897 84.7278C101.489 84.7278 101.133 84.8118 100.829 84.9798C100.533 85.1398 100.301 85.3678 100.133 85.6638C99.973 85.9518 99.893 86.2918 99.893 86.6838C99.893 87.1558 99.997 87.5598 100.205 87.8958C100.413 88.2318 100.717 88.4878 101.117 88.6638C101.517 88.8398 102.001 88.9278 102.569 88.9278C103.081 88.9278 103.597 88.8558 104.117 88.7118C104.637 88.5598 105.105 88.3478 105.521 88.0758L105.521 89.4198C105.073 89.7398 104.549 89.9918 103.949 90.1758C103.357 90.3518 102.729 90.4398 102.065 90.4398ZM111.159 82.2798C110.655 82.2798 110.283 82.3718 110.043 82.5558C109.803 82.7398 109.683 83.0478 109.683 83.4798L109.683 90.2598L107.679 90.2598L107.679 83.8398C107.679 83.2158 107.799 82.6798 108.039 82.2318C108.279 81.7838 108.639 81.4398 109.119 81.1998C109.599 80.9598 110.203 80.8398 110.931 80.8398C111.243 80.8398 111.523 80.8678 111.771 80.9238C112.019 80.9718 112.263 81.0398 112.503 81.1278L112.503 82.4958C112.295 82.4238 112.083 82.3718 111.867 82.3398C111.651 82.2998 111.415 82.2798 111.159 82.2798ZM106.263 85.3398L106.263 83.7918L112.431 83.7918L112.431 85.3398L106.263 85.3398ZM111.759 85.3398L111.759 83.7918L113.211 83.7918L114.039 81.7878L115.179 81.7878L115.179 83.7318L118.203 83.7318L118.203 85.2678L115.179 85.2678L115.179 87.3798C115.179 87.9158 115.291 88.2918 115.515 88.5078C115.739 88.7238 116.123 88.8318 116.667 88.8318C117.011 88.8318 117.315 88.7958 117.579 88.7238C117.851 88.6518 118.099 88.5558 118.323 88.4358L118.335 89.9958C118.103 90.0998 117.791 90.1958 117.399 90.2838C117.015 90.3798 116.619 90.4278 116.211 90.4278C115.507 90.4278 114.931 90.3158 114.483 90.0918C114.035 89.8598 113.703 89.5398 113.487 89.1318C113.279 88.7158 113.175 88.2358 113.175 87.6918L113.175 85.3398L111.759 85.3398ZM122.206 84.4278C122.254 83.7398 122.478 83.1478 122.878 82.6518C123.278 82.1478 123.806 81.7598 124.462 81.4878C125.126 81.2158 125.878 81.0798 126.718 81.0798C127.518 81.0798 128.218 81.2038 128.818 81.4518C129.418 81.6918 129.886 82.0318 130.222 82.4718C130.558 82.9118 130.726 83.4238 130.726 84.0078C130.726 84.4558 130.61 84.8718 130.378 85.2558C130.146 85.6398 129.774 86.0278 129.262 86.4198C128.758 86.8038 128.086 87.2198 127.246 87.6678L124.522 89.1678L124.366 88.6158L130.978 88.6158L130.978 90.2598L122.338 90.2598L122.338 88.8198L126.19 86.5638C126.83 86.1958 127.33 85.8798 127.69 85.6158C128.05 85.3438 128.306 85.0918 128.458 84.8598C128.61 84.6278 128.686 84.3798 128.686 84.1158C128.686 83.8358 128.61 83.5878 128.458 83.3718C128.306 83.1558 128.078 82.9878 127.774 82.8678C127.478 82.7478 127.102 82.6878 126.646 82.6878C126.11 82.6878 125.67 82.7678 125.326 82.9278C124.982 83.0798 124.722 83.2878 124.546 83.5518C124.378 83.8158 124.278 84.1078 124.246 84.4278L122.206 84.4278ZM134.991 83.4318L136.995 83.4318L137.427 86.0358L137.427 90.2598L135.423 90.2598L135.423 85.7358L134.991 83.4318ZM140.031 83.2518C140.679 83.2518 141.231 83.3838 141.687 83.6478C142.143 83.9038 142.491 84.2718 142.731 84.7518C142.971 85.2318 143.091 85.8038 143.091 86.4678L143.091 90.2598L141.087 90.2598L141.087 86.7678C141.087 86.1518 140.939 85.6878 140.643 85.3758C140.347 85.0558 139.915 84.8958 139.347 84.8958C138.963 84.8958 138.623 84.9838 138.327 85.1598C138.039 85.3278 137.815 85.5638 137.655 85.8678C137.503 86.1718 137.427 86.5358 137.427 86.9598L136.767 86.6118C136.847 85.8918 137.039 85.2838 137.343 84.7878C137.647 84.2918 138.031 83.9118 138.495 83.6478C138.959 83.3838 139.471 83.2518 140.031 83.2518ZM148.414 90.4398C147.566 90.4398 146.822 90.2918 146.182 89.9958C145.542 89.6918 145.042 89.2718 144.682 88.7358C144.322 88.1918 144.142 87.5638 144.142 86.8518C144.142 86.1318 144.322 85.5038 144.682 84.9678C145.042 84.4238 145.542 84.0038 146.182 83.7078C146.822 83.4038 147.566 83.2518 148.414 83.2518C149.262 83.2518 150.006 83.4038 150.646 83.7078C151.286 84.0038 151.782 84.4238 152.134 84.9678C152.494 85.5038 152.674 86.1318 152.674 86.8518C152.674 87.5638 152.494 88.1918 152.134 88.7358C151.782 89.2718 151.286 89.6918 150.646 89.9958C150.006 90.2918 149.262 90.4398 148.414 90.4398ZM148.414 88.9158C148.878 88.9158 149.274 88.8318 149.602 88.6638C149.938 88.4958 150.194 88.2598 150.37 87.9558C150.554 87.6438 150.646 87.2758 150.646 86.8518C150.646 86.4198 150.554 86.0518 150.37 85.7478C150.194 85.4358 149.938 85.1958 149.602 85.0278C149.274 84.8598 148.878 84.7758 148.414 84.7758C147.958 84.7758 147.562 84.8598 147.226 85.0278C146.89 85.1958 146.63 85.4358 146.446 85.7478C146.27 86.0518 146.182 86.4198 146.182 86.8518C146.182 87.2758 146.27 87.6438 146.446 87.9558C146.63 88.2598 146.89 88.4958 147.226 88.6638C147.562 88.8318 147.958 88.9158 148.414 88.9158ZM153.494 83.4318L155.523 83.4318L155.93 85.8918L155.93 90.2598L153.926 90.2598L153.926 85.6758L153.494 83.4318ZM159.255 83.3598L159.255 85.0878C159.047 85.0398 158.839 85.0038 158.631 84.9798C158.423 84.9558 158.227 84.9438 158.043 84.9438C157.643 84.9438 157.283 85.0278 156.963 85.1958C156.643 85.3638 156.391 85.6238 156.207 85.9758C156.023 86.3278 155.93 86.7718 155.93 87.3078L155.51 86.8038C155.558 86.3158 155.646 85.8598 155.775 85.4358C155.903 85.0038 156.079 84.6278 156.303 84.3078C156.535 83.9798 156.819 83.7238 157.155 83.5398C157.491 83.3478 157.891 83.2518 158.355 83.2518C158.507 83.2518 158.659 83.2638 158.811 83.2878C158.971 83.3038 159.119 83.3278 159.255 83.3598ZM159.858 83.4318L161.862 83.4318L162.294 86.0358L162.294 90.2598L160.29 90.2598L160.29 85.7358L159.858 83.4318ZM164.73 83.2518C165.338 83.2518 165.858 83.3838 166.29 83.6478C166.722 83.9038 167.05 84.2718 167.274 84.7518C167.506 85.2318 167.622 85.8038 167.622 86.4678L167.622 90.2598L165.618 90.2598L165.618 86.7678C165.618 86.1518 165.482 85.6878 165.21 85.3758C164.946 85.0558 164.558 84.8958 164.046 84.8958C163.686 84.8958 163.374 84.9838 163.11 85.1598C162.846 85.3278 162.642 85.5638 162.498 85.8678C162.362 86.1718 162.294 86.5358 162.294 86.9598L161.634 86.6118C161.714 85.8918 161.898 85.2838 162.186 84.7878C162.474 84.2918 162.834 83.9118 163.266 83.6478C163.706 83.3838 164.194 83.2518 164.73 83.2518ZM170.046 83.2518C170.654 83.2518 171.174 83.3838 171.606 83.6478C172.046 83.9038 172.378 84.2718 172.602 84.7518C172.834 85.2318 172.95 85.8038 172.95 86.4678L172.95 90.2598L170.946 90.2598L170.946 86.7678C170.946 86.1518 170.81 85.6878 170.538 85.3758C170.274 85.0558 169.886 84.8958 169.374 84.8958C169.014 84.8958 168.702 84.9838 168.438 85.1598C168.174 85.3278 167.97 85.5638 167.826 85.8678C167.69 86.1718 167.622 86.5358 167.622 86.9598L166.962 86.6118C167.042 85.8918 167.226 85.2838 167.514 84.7878C167.802 84.2918 168.162 83.9118 168.594 83.6478C169.034 83.3838 169.518 83.2518 170.046 83.2518ZM180.613 90.2598L180.325 87.7638L180.649 86.8518L180.325 85.9518L180.613 83.4318L182.689 83.4318L182.293 86.8518L182.689 90.2598L180.613 90.2598ZM181.141 86.8518C181.013 87.5718 180.777 88.2038 180.433 88.7478C180.097 89.2838 179.669 89.6998 179.149 89.9958C178.637 90.2918 178.061 90.4398 177.421 90.4398C176.757 90.4398 176.169 90.2918 175.657 89.9958C175.145 89.6918 174.745 89.2718 174.457 88.7358C174.177 88.1918 174.037 87.5638 174.037 86.8518C174.037 86.1318 174.177 85.5038 174.457 84.9678C174.745 84.4238 175.145 84.0038 175.657 83.7078C176.169 83.4038 176.757 83.2518 177.421 83.2518C178.061 83.2518 178.637 83.3998 179.149 83.6958C179.669 83.9918 180.101 84.4118 180.445 84.9558C180.789 85.4918 181.021 86.1238 181.141 86.8518ZM176.065 86.8518C176.065 87.2518 176.145 87.6038 176.305 87.9078C176.473 88.2118 176.701 88.4518 176.989 88.6278C177.277 88.7958 177.609 88.8798 177.985 88.8798C178.361 88.8798 178.713 88.7958 179.041 88.6278C179.377 88.4518 179.673 88.2118 179.929 87.9078C180.185 87.6038 180.385 87.2518 180.529 86.8518C180.385 86.4518 180.185 86.0998 179.929 85.7958C179.673 85.4838 179.377 85.2438 179.041 85.0758C178.713 84.8998 178.361 84.8118 177.985 84.8118C177.609 84.8118 177.277 84.8998 176.989 85.0758C176.701 85.2438 176.473 85.4838 176.305 85.7958C176.145 86.0998 176.065 86.4518 176.065 86.8518ZM190.258 90.2598L189.97 87.7638L190.294 86.8518L189.97 85.9518L190.258 83.4318L192.334 83.4318L191.938 86.8518L192.334 90.2598L190.258 90.2598ZM190.786 86.8518C190.658 87.5718 190.422 88.2038 190.078 88.7478C189.742 89.2838 189.314 89.6998 188.794 89.9958C188.282 90.2918 187.706 90.4398 187.066 90.4398C186.402 90.4398 185.814 90.2918 185.302 89.9958C184.79 89.6918 184.39 89.2718 184.102 88.7358C183.822 88.1918 183.682 87.5638 183.682 86.8518C183.682 86.1318 183.822 85.5038 184.102 84.9678C184.39 84.4238 184.79 84.0038 185.302 83.7078C185.814 83.4038 186.402 83.2518 187.066 83.2518C187.706 83.2518 188.282 83.3998 188.794 83.6958C189.314 83.9918 189.746 84.4118 190.09 84.9558C190.434 85.4918 190.666 86.1238 190.786 86.8518ZM185.71 86.8518C185.71 87.2518 185.79 87.6038 185.95 87.9078C186.118 88.2118 186.346 88.4518 186.634 88.6278C186.922 88.7958 187.254 88.8798 187.63 88.8798C188.006 88.8798 188.358 88.7958 188.686 88.6278C189.022 88.4518 189.318 88.2118 189.574 87.9078C189.83 87.6038 190.03 87.2518 190.174 86.8518C190.03 86.4518 189.83 86.0998 189.574 85.7958C189.318 85.4838 189.022 85.2438 188.686 85.0758C188.358 84.8998 188.006 84.8118 187.63 84.8118C187.254 84.8118 186.922 84.8998 186.634 85.0758C186.346 85.2438 186.118 85.4838 185.95 85.7958C185.79 86.0998 185.71 86.4518 185.71 86.8518ZM193.674 81.0198L195.678 81.0198L195.678 90.2598L193.674 90.2598L193.674 81.0198ZM206.332 88.5678L206.332 87.3798L206.404 87.1278L206.404 85.6398L206.332 85.3878L206.332 83.4318L208.336 83.4318L208.336 88.4358C208.336 89.2998 208.144 90.0278 207.76 90.6198C207.384 91.2118 206.86 91.6598 206.188 91.9638C205.516 92.2678 204.736 92.4198 203.848 92.4198C203.224 92.4198 202.648 92.3398 202.12 92.1798C201.6 92.0198 201.088 91.7758 200.584 91.4478L200.584 89.8758C201.072 90.2518 201.58 90.5198 202.108 90.6798C202.644 90.8398 203.184 90.9198 203.728 90.9198C204.568 90.9198 205.212 90.7238 205.66 90.3318C206.108 89.9398 206.332 89.3518 206.332 88.5678ZM203.224 89.6358C202.592 89.6358 202.024 89.5038 201.52 89.2398C201.024 88.9758 200.632 88.6038 200.344 88.1238C200.056 87.6438 199.912 87.0838 199.912 86.4438C199.912 85.8038 200.056 85.2478 200.344 84.7758C200.632 84.2958 201.024 83.9238 201.52 83.6598C202.024 83.3878 202.592 83.2518 203.224 83.2518C203.704 83.2518 204.14 83.3278 204.532 83.4798C204.932 83.6238 205.288 83.8158 205.6 84.0558C205.92 84.2958 206.188 84.5598 206.404 84.8478C206.62 85.1278 206.784 85.4118 206.896 85.6998C207.016 85.9798 207.076 86.2358 207.076 86.4678C207.076 86.7638 206.984 87.0958 206.8 87.4638C206.624 87.8318 206.368 88.1798 206.032 88.5078C205.696 88.8358 205.292 89.1078 204.82 89.3238C204.348 89.5318 203.816 89.6358 203.224 89.6358ZM203.884 88.2198C204.404 88.2198 204.872 88.0798 205.288 87.7998C205.712 87.5118 206.084 87.0598 206.404 86.4438C206.084 85.8198 205.712 85.3678 205.288 85.0878C204.864 84.7998 204.396 84.6558 203.884 84.6558C203.476 84.6558 203.124 84.7318 202.828 84.8838C202.54 85.0278 202.316 85.2358 202.156 85.5078C202.004 85.7718 201.928 86.0838 201.928 86.4438C201.928 86.7958 202.004 87.1078 202.156 87.3798C202.308 87.6438 202.532 87.8518 202.828 88.0038C203.124 88.1478 203.476 88.2198 203.884 88.2198ZM213.663 90.4398C212.855 90.4398 212.131 90.2918 211.491 89.9958C210.859 89.6918 210.359 89.2678 209.991 88.7238C209.631 88.1798 209.451 87.5478 209.451 86.8278C209.451 86.1158 209.623 85.4918 209.967 84.9558C210.319 84.4198 210.799 84.0038 211.407 83.7078C212.015 83.4038 212.707 83.2518 213.483 83.2518C214.275 83.2518 214.955 83.4278 215.523 83.7798C216.091 84.1238 216.527 84.6118 216.831 85.2438C217.143 85.8758 217.299 86.6198 217.299 87.4758L211.059 87.4758L211.059 86.1438L216.219 86.1438L215.439 86.6238C215.407 86.2238 215.307 85.8838 215.139 85.6038C214.979 85.3238 214.759 85.1078 214.479 84.9558C214.199 84.8038 213.871 84.7278 213.495 84.7278C213.087 84.7278 212.731 84.8118 212.427 84.9798C212.131 85.1398 211.899 85.3678 211.731 85.6638C211.571 85.9518 211.491 86.2918 211.491 86.6838C211.491 87.1558 211.595 87.5598 211.803 87.8958C212.011 88.2318 212.315 88.4878 212.715 88.6638C213.115 88.8398 213.599 88.9278 214.167 88.9278C214.679 88.9278 215.195 88.8558 215.715 88.7118C216.235 88.5598 216.703 88.3478 217.119 88.0758L217.119 89.4198C216.671 89.7398 216.147 89.9918 215.547 90.1758C214.955 90.3518 214.327 90.4398 213.663 90.4398ZM224.543 88.5678L224.543 87.3798L224.615 87.1278L224.615 85.6398L224.543 85.3878L224.543 83.4318L226.547 83.4318L226.547 88.4358C226.547 89.2998 226.355 90.0278 225.971 90.6198C225.595 91.2118 225.071 91.6598 224.399 91.9638C223.727 92.2678 222.947 92.4198 222.059 92.4198C221.435 92.4198 220.859 92.3398 220.331 92.1798C219.811 92.0198 219.299 91.7758 218.795 91.4478L218.795 89.8758C219.283 90.2518 219.791 90.5198 220.319 90.6798C220.855 90.8398 221.395 90.9198 221.939 90.9198C222.779 90.9198 223.423 90.7238 223.871 90.3318C224.319 89.9398 224.543 89.3518 224.543 88.5678ZM221.435 89.6358C220.803 89.6358 220.235 89.5038 219.731 89.2398C219.235 88.9758 218.843 88.6038 218.555 88.1238C218.267 87.6438 218.123 87.0838 218.123 86.4438C218.123 85.8038 218.267 85.2478 218.555 84.7758C218.843 84.2958 219.235 83.9238 219.731 83.6598C220.235 83.3878 220.803 83.2518 221.435 83.2518C221.915 83.2518 222.351 83.3278 222.743 83.4798C223.143 83.6238 223.499 83.8158 223.811 84.0558C224.131 84.2958 224.399 84.5598 224.615 84.8478C224.831 85.1278 224.995 85.4118 225.107 85.6998C225.227 85.9798 225.287 86.2358 225.287 86.4678C225.287 86.7638 225.195 87.0958 225.011 87.4638C224.835 87.8318 224.579 88.1798 224.243 88.5078C223.907 88.8358 223.503 89.1078 223.031 89.3238C222.559 89.5318 222.027 89.6358 221.435 89.6358ZM222.095 88.2198C222.615 88.2198 223.083 88.0798 223.499 87.7998C223.923 87.5118 224.295 87.0598 224.615 86.4438C224.295 85.8198 223.923 85.3678 223.499 85.0878C223.075 84.7998 222.607 84.6558 222.095 84.6558C221.687 84.6558 221.335 84.7318 221.039 84.8838C220.751 85.0278 220.527 85.2358 220.367 85.5078C220.215 85.7718 220.139 86.0838 220.139 86.4438C220.139 86.7958 220.215 87.1078 220.367 87.3798C220.519 87.6438 220.743 87.8518 221.039 88.0038C221.335 88.1478 221.687 88.2198 222.095 88.2198ZM231.874 90.4398C231.066 90.4398 230.342 90.2918 229.702 89.9958C229.07 89.6918 228.57 89.2678 228.202 88.7238C227.842 88.1798 227.662 87.5478 227.662 86.8278C227.662 86.1158 227.834 85.4918 228.178 84.9558C228.53 84.4198 229.01 84.0038 229.618 83.7078C230.226 83.4038 230.918 83.2518 231.694 83.2518C232.486 83.2518 233.166 83.4278 233.734 83.7798C234.302 84.1238 234.738 84.6118 235.042 85.2438C235.354 85.8758 235.51 86.6198 235.51 87.4758L229.27 87.4758L229.27 86.1438L234.43 86.1438L233.65 86.6238C233.618 86.2238 233.518 85.8838 233.35 85.6038C233.19 85.3238 232.97 85.1078 232.69 84.9558C232.41 84.8038 232.082 84.7278 231.706 84.7278C231.298 84.7278 230.942 84.8118 230.638 84.9798C230.342 85.1398 230.11 85.3678 229.942 85.6638C229.782 85.9518 229.702 86.2918 229.702 86.6838C229.702 87.1558 229.806 87.5598 230.014 87.8958C230.222 88.2318 230.526 88.4878 230.926 88.6638C231.326 88.8398 231.81 88.9278 232.378 88.9278C232.89 88.9278 233.406 88.8558 233.926 88.7118C234.446 88.5598 234.914 88.3478 235.33 88.0758L235.33 89.4198C234.882 89.7398 234.358 89.9918 233.758 90.1758C233.166 90.3518 232.538 90.4398 231.874 90.4398ZM240.34 89.3358L239.62 89.3238L242.2 83.4318L244.336 83.4318L241.072 90.2598L238.804 90.2598L235.552 83.4318L237.76 83.4318L240.34 89.3358ZM248.62 90.4398C247.812 90.4398 247.088 90.2918 246.448 89.9958C245.816 89.6918 245.316 89.2678 244.948 88.7238C244.588 88.1798 244.408 87.5478 244.408 86.8278C244.408 86.1158 244.58 85.4918 244.924 84.9558C245.276 84.4198 245.756 84.0038 246.364 83.7078C246.972 83.4038 247.664 83.2518 248.44 83.2518C249.232 83.2518 249.912 83.4278 250.48 83.7798C251.048 84.1238 251.484 84.6118 251.788 85.2438C252.1 85.8758 252.256 86.6198 252.256 87.4758L246.016 87.4758L246.016 86.1438L251.176 86.1438L250.396 86.6238C250.364 86.2238 250.264 85.8838 250.096 85.6038C249.936 85.3238 249.716 85.1078 249.436 84.9558C249.156 84.8038 248.828 84.7278 248.452 84.7278C248.044 84.7278 247.688 84.8118 247.384 84.9798C247.088 85.1398 246.856 85.3678 246.688 85.6638C246.528 85.9518 246.448 86.2918 246.448 86.6838C246.448 87.1558 246.552 87.5598 246.76 87.8958C246.968 88.2318 247.272 88.4878 247.672 88.6638C248.072 88.8398 248.556 88.9278 249.124 88.9278C249.636 88.9278 250.152 88.8558 250.672 88.7118C251.192 88.5598 251.66 88.3478 252.076 88.0758L252.076 89.4198C251.628 89.7398 251.104 89.9918 250.504 90.1758C249.912 90.3518 249.284 90.4398 248.62 90.4398ZM253.08 83.4318L255.084 83.4318L255.516 86.0358L255.516 90.2598L253.512 90.2598L253.512 85.7358L253.08 83.4318ZM258.12 83.2518C258.768 83.2518 259.32 83.3838 259.776 83.6478C260.232 83.9038 260.58 84.2718 260.82 84.7518C261.06 85.2318 261.18 85.8038 261.18 86.4678L261.18 90.2598L259.176 90.2598L259.176 86.7678C259.176 86.1518 259.028 85.6878 258.732 85.3758C258.436 85.0558 258.004 84.8958 257.436 84.8958C257.052 84.8958 256.712 84.9838 256.416 85.1598C256.128 85.3278 255.904 85.5638 255.744 85.8678C255.592 86.1718 255.516 86.5358 255.516 86.9598L254.856 86.6118C254.936 85.8918 255.128 85.2838 255.432 84.7878C255.736 84.2918 256.12 83.9118 256.584 83.6478C257.048 83.3838 257.56 83.2518 258.12 83.2518ZM271.914 90.2598L271.626 87.7638L271.95 86.8518L271.626 85.9518L271.914 83.4318L273.99 83.4318L273.594 86.8518L273.99 90.2598L271.914 90.2598ZM272.442 86.8518C272.314 87.5718 272.078 88.2038 271.734 88.7478C271.398 89.2838 270.97 89.6998 270.45 89.9958C269.938 90.2918 269.362 90.4398 268.722 90.4398C268.058 90.4398 267.47 90.2918 266.958 89.9958C266.446 89.6918 266.046 89.2718 265.758 88.7358C265.478 88.1918 265.338 87.5638 265.338 86.8518C265.338 86.1318 265.478 85.5038 265.758 84.9678C266.046 84.4238 266.446 84.0038 266.958 83.7078C267.47 83.4038 268.058 83.2518 268.722 83.2518C269.362 83.2518 269.938 83.3998 270.45 83.6958C270.97 83.9918 271.402 84.4118 271.746 84.9558C272.09 85.4918 272.322 86.1238 272.442 86.8518ZM267.366 86.8518C267.366 87.2518 267.446 87.6038 267.606 87.9078C267.774 88.2118 268.002 88.4518 268.29 88.6278C268.578 88.7958 268.91 88.8798 269.286 88.8798C269.662 88.8798 270.014 88.7958 270.342 88.6278C270.678 88.4518 270.974 88.2118 271.23 87.9078C271.486 87.6038 271.686 87.2518 271.83 86.8518C271.686 86.4518 271.486 86.0998 271.23 85.7958C270.974 85.4838 270.678 85.2438 270.342 85.0758C270.014 84.8998 269.662 84.8118 269.286 84.8118C268.91 84.8118 268.578 84.8998 268.29 85.0758C268.002 85.2438 267.774 85.4838 267.606 85.7958C267.446 86.0998 267.366 86.4518 267.366 86.8518ZM281.559 90.2598L281.271 87.7638L281.595 86.8518L281.271 85.9518L281.559 83.4318L283.635 83.4318L283.239 86.8518L283.635 90.2598L281.559 90.2598ZM282.087 86.8518C281.959 87.5718 281.723 88.2038 281.379 88.7478C281.043 89.2838 280.615 89.6998 280.095 89.9958C279.583 90.2918 279.007 90.4398 278.367 90.4398C277.703 90.4398 277.115 90.2918 276.603 89.9958C276.091 89.6918 275.691 89.2718 275.403 88.7358C275.123 88.1918 274.983 87.5638 274.983 86.8518C274.983 86.1318 275.123 85.5038 275.403 84.9678C275.691 84.4238 276.091 84.0038 276.603 83.7078C277.115 83.4038 277.703 83.2518 278.367 83.2518C279.007 83.2518 279.583 83.3998 280.095 83.6958C280.615 83.9918 281.047 84.4118 281.391 84.9558C281.735 85.4918 281.967 86.1238 282.087 86.8518ZM277.011 86.8518C277.011 87.2518 277.091 87.6038 277.251 87.9078C277.419 88.2118 277.647 88.4518 277.935 88.6278C278.223 88.7958 278.555 88.8798 278.931 88.8798C279.307 88.8798 279.659 88.7958 279.987 88.6278C280.323 88.4518 280.619 88.2118 280.875 87.9078C281.131 87.6038 281.331 87.2518 281.475 86.8518C281.331 86.4518 281.131 86.0998 280.875 85.7958C280.619 85.4838 280.323 85.2438 279.987 85.0758C279.659 84.8998 279.307 84.8118 278.931 84.8118C278.555 84.8118 278.223 84.8998 277.935 85.0758C277.647 85.2438 277.419 85.4838 277.251 85.7958C277.091 86.0998 277.011 86.4518 277.011 86.8518ZM284.651 83.4318L286.655 83.4318L287.087 86.0358L287.087 90.2598L285.083 90.2598L285.083 85.7358L284.651 83.4318ZM289.691 83.2518C290.339 83.2518 290.891 83.3838 291.347 83.6478C291.803 83.9038 292.151 84.2718 292.391 84.7518C292.631 85.2318 292.751 85.8038 292.751 86.4678L292.751 90.2598L290.747 90.2598L290.747 86.7678C290.747 86.1518 290.599 85.6878 290.303 85.3758C290.007 85.0558 289.575 84.8958 289.007 84.8958C288.623 84.8958 288.283 84.9838 287.987 85.1598C287.699 85.3278 287.475 85.5638 287.315 85.8678C287.163 86.1718 287.087 86.5358 287.087 86.9598L286.427 86.6118C286.507 85.8918 286.699 85.2838 287.003 84.7878C287.307 84.2918 287.691 83.9118 288.155 83.6478C288.619 83.3838 289.131 83.2518 289.691 83.2518ZM298.817 85.2558L302.285 85.2558C302.741 85.2558 303.101 85.1518 303.365 84.9438C303.637 84.7278 303.773 84.4318 303.773 84.0558C303.773 83.6798 303.637 83.3878 303.365 83.1798C303.101 82.9718 302.741 82.8678 302.285 82.8678L298.517 82.8678L299.441 81.8238L299.441 90.2598L297.401 90.2598L297.401 81.2598L302.525 81.2598C303.181 81.2598 303.757 81.3798 304.253 81.6198C304.749 81.8518 305.137 82.1758 305.417 82.5918C305.697 83.0078 305.837 83.4958 305.837 84.0558C305.837 84.6078 305.697 85.0918 305.417 85.5078C305.137 85.9238 304.749 86.2518 304.253 86.4918C303.757 86.7238 303.181 86.8398 302.525 86.8398L298.817 86.8398L298.817 85.2558ZM300.377 86.0478L302.705 86.0478L306.101 90.2598L303.713 90.2598L300.377 86.0478ZM307.123 83.3598L308.119 83.5518L309.127 83.3598L309.127 90.2598L307.123 90.2598L307.123 83.3598ZM308.119 82.6518C307.759 82.6518 307.463 82.5598 307.231 82.3758C307.007 82.1838 306.895 81.9318 306.895 81.6198C306.895 81.2998 307.007 81.0478 307.231 80.8638C307.463 80.6718 307.759 80.5758 308.119 80.5758C308.487 80.5758 308.783 80.6718 309.007 80.8638C309.231 81.0478 309.343 81.2998 309.343 81.6198C309.343 81.9318 309.231 82.1838 309.007 82.3758C308.783 82.5598 308.487 82.6518 308.119 82.6518ZM314.491 90.4398C313.683 90.4398 312.959 90.2918 312.319 89.9958C311.687 89.6918 311.187 89.2678 310.819 88.7238C310.459 88.1798 310.279 87.5478 310.279 86.8278C310.279 86.1158 310.451 85.4918 310.795 84.9558C311.147 84.4198 311.627 84.0038 312.235 83.7078C312.843 83.4038 313.535 83.2518 314.311 83.2518C315.103 83.2518 315.783 83.4278 316.351 83.7798C316.919 84.1238 317.355 84.6118 317.659 85.2438C317.971 85.8758 318.127 86.6198 318.127 87.4758L311.887 87.4758L311.887 86.1438L317.047 86.1438L316.267 86.6238C316.235 86.2238 316.135 85.8838 315.967 85.6038C315.807 85.3238 315.587 85.1078 315.307 84.9558C315.027 84.8038 314.699 84.7278 314.323 84.7278C313.915 84.7278 313.559 84.8118 313.255 84.9798C312.959 85.1398 312.727 85.3678 312.559 85.6638C312.399 85.9518 312.319 86.2918 312.319 86.6838C312.319 87.1558 312.423 87.5598 312.631 87.8958C312.839 88.2318 313.143 88.4878 313.543 88.6638C313.943 88.8398 314.427 88.9278 314.995 88.9278C315.507 88.9278 316.023 88.8558 316.543 88.7118C317.063 88.5598 317.531 88.3478 317.947 88.0758L317.947 89.4198C317.499 89.7398 316.975 89.9918 316.375 90.1758C315.783 90.3518 315.155 90.4398 314.491 90.4398ZM318.952 83.4318L320.956 83.4318L321.388 86.0358L321.388 90.2598L319.384 90.2598L319.384 85.7358L318.952 83.4318ZM323.824 83.2518C324.432 83.2518 324.952 83.3838 325.384 83.6478C325.816 83.9038 326.144 84.2718 326.368 84.7518C326.6 85.2318 326.716 85.8038 326.716 86.4678L326.716 90.2598L324.712 90.2598L324.712 86.7678C324.712 86.1518 324.576 85.6878 324.304 85.3758C324.04 85.0558 323.652 84.8958 323.14 84.8958C322.78 84.8958 322.468 84.9838 322.204 85.1598C321.94 85.3278 321.736 85.5638 321.592 85.8678C321.456 86.1718 321.388 86.5358 321.388 86.9598L320.728 86.6118C320.808 85.8918 320.992 85.2838 321.28 84.7878C321.568 84.2918 321.928 83.9118 322.36 83.6478C322.8 83.3838 323.288 83.2518 323.824 83.2518ZM329.14 83.2518C329.748 83.2518 330.268 83.3838 330.7 83.6478C331.14 83.9038 331.472 84.2718 331.696 84.7518C331.928 85.2318 332.044 85.8038 332.044 86.4678L332.044 90.2598L330.04 90.2598L330.04 86.7678C330.04 86.1518 329.904 85.6878 329.632 85.3758C329.368 85.0558 328.98 84.8958 328.468 84.8958C328.108 84.8958 327.796 84.9838 327.532 85.1598C327.268 85.3278 327.064 85.5638 326.92 85.8678C326.784 86.1718 326.716 86.5358 326.716 86.9598L326.056 86.6118C326.136 85.8918 326.32 85.2838 326.608 84.7878C326.896 84.2918 327.256 83.9118 327.688 83.6478C328.128 83.3838 328.612 83.2518 329.14 83.2518ZM337.307 90.4398C336.499 90.4398 335.775 90.2918 335.135 89.9958C334.503 89.6918 334.003 89.2678 333.635 88.7238C333.275 88.1798 333.095 87.5478 333.095 86.8278C333.095 86.1158 333.267 85.4918 333.611 84.9558C333.963 84.4198 334.443 84.0038 335.051 83.7078C335.659 83.4038 336.351 83.2518 337.127 83.2518C337.919 83.2518 338.599 83.4278 339.167 83.7798C339.735 84.1238 340.171 84.6118 340.475 85.2438C340.787 85.8758 340.943 86.6198 340.943 87.4758L334.703 87.4758L334.703 86.1438L339.863 86.1438L339.083 86.6238C339.051 86.2238 338.951 85.8838 338.783 85.6038C338.623 85.3238 338.403 85.1078 338.123 84.9558C337.843 84.8038 337.515 84.7278 337.139 84.7278C336.731 84.7278 336.375 84.8118 336.071 84.9798C335.775 85.1398 335.543 85.3678 335.375 85.6638C335.215 85.9518 335.135 86.2918 335.135 86.6838C335.135 87.1558 335.239 87.5598 335.447 87.8958C335.655 88.2318 335.959 88.4878 336.359 88.6638C336.759 88.8398 337.243 88.9278 337.811 88.9278C338.323 88.9278 338.839 88.8558 339.359 88.7118C339.879 88.5598 340.347 88.3478 340.763 88.0758L340.763 89.4198C340.315 89.7398 339.791 89.9918 339.191 90.1758C338.599 90.3518 337.971 90.4398 337.307 90.4398ZM341.768 83.4318L343.796 83.4318L344.204 85.8918L344.204 90.2598L342.2 90.2598L342.2 85.6758L341.768 83.4318ZM347.528 83.3598L347.528 85.0878C347.32 85.0398 347.112 85.0038 346.904 84.9798C346.696 84.9558 346.5 84.9438 346.316 84.9438C345.916 84.9438 345.556 85.0278 345.236 85.1958C344.916 85.3638 344.664 85.6238 344.48 85.9758C344.296 86.3278 344.204 86.7718 344.204 87.3078L343.784 86.8038C343.832 86.3158 343.92 85.8598 344.048 85.4358C344.176 85.0038 344.352 84.6278 344.576 84.3078C344.808 83.9798 345.092 83.7238 345.428 83.5398C345.764 83.3478 346.164 83.2518 346.628 83.2518C346.78 83.2518 346.932 83.2638 347.084 83.2878C347.244 83.3038 347.392 83.3278 347.528 83.3598ZM348.467 81.2598L350.555 81.2598L350.219 87.2958L348.803 87.2958L348.467 81.2598ZM349.511 90.3678C349.167 90.3678 348.887 90.2678 348.671 90.0678C348.455 89.8598 348.347 89.5958 348.347 89.2758C348.347 88.9478 348.455 88.6838 348.671 88.4838C348.887 88.2758 349.167 88.1718 349.511 88.1718C349.855 88.1718 350.135 88.2758 350.351 88.4838C350.567 88.6838 350.675 88.9478 350.675 89.2758C350.675 89.5958 350.567 89.8598 350.351 90.0678C350.135 90.2678 349.855 90.3678 349.511 90.3678Z" fill="white"/>
<path d="M97.7513 142.57L97.1713 142.57L99.2612 135.76L101.041 135.76L98.6313 143.26L96.4613 143.26L94.1013 136.62L94.8413 136.62L92.4813 143.26L90.3113 143.26L87.9012 135.76L89.7012 135.76L91.7713 142.57L91.2113 142.56L93.5713 135.76L95.3813 135.76L97.7513 142.57ZM104.365 143.41C103.692 143.41 103.089 143.286 102.555 143.04C102.029 142.786 101.612 142.433 101.305 141.98C101.005 141.526 100.855 141 100.855 140.4C100.855 139.806 100.999 139.286 101.285 138.84C101.579 138.393 101.979 138.046 102.485 137.8C102.992 137.546 103.569 137.42 104.215 137.42C104.875 137.42 105.442 137.566 105.915 137.86C106.389 138.146 106.752 138.553 107.005 139.08C107.265 139.606 107.395 140.226 107.395 140.94L102.195 140.94L102.195 139.83L106.495 139.83L105.845 140.23C105.819 139.896 105.735 139.613 105.595 139.38C105.462 139.146 105.279 138.966 105.045 138.84C104.812 138.713 104.539 138.65 104.225 138.65C103.885 138.65 103.589 138.72 103.335 138.86C103.089 138.993 102.895 139.183 102.755 139.43C102.622 139.67 102.555 139.953 102.555 140.28C102.555 140.673 102.642 141.01 102.815 141.29C102.989 141.57 103.242 141.783 103.575 141.93C103.909 142.076 104.312 142.15 104.785 142.15C105.212 142.15 105.642 142.09 106.075 141.97C106.509 141.843 106.899 141.666 107.245 141.44L107.245 142.56C106.872 142.826 106.435 143.036 105.935 143.19C105.442 143.336 104.919 143.41 104.365 143.41ZM111.582 143.41C110.909 143.41 110.306 143.286 109.772 143.04C109.246 142.786 108.829 142.433 108.522 141.98C108.222 141.526 108.072 141 108.072 140.4C108.072 139.806 108.216 139.286 108.502 138.84C108.796 138.393 109.196 138.046 109.702 137.8C110.209 137.546 110.786 137.42 111.432 137.42C112.092 137.42 112.659 137.566 113.132 137.86C113.606 138.146 113.969 138.553 114.222 139.08C114.482 139.606 114.612 140.226 114.612 140.94L109.412 140.94L109.412 139.83L113.712 139.83L113.062 140.23C113.036 139.896 112.952 139.613 112.812 139.38C112.679 139.146 112.496 138.966 112.262 138.84C112.029 138.713 111.756 138.65 111.442 138.65C111.102 138.65 110.806 138.72 110.552 138.86C110.306 138.993 110.112 139.183 109.972 139.43C109.839 139.67 109.772 139.953 109.772 140.28C109.772 140.673 109.859 141.01 110.032 141.29C110.206 141.57 110.459 141.783 110.792 141.93C111.126 142.076 111.529 142.15 112.002 142.15C112.429 142.15 112.859 142.09 113.292 141.97C113.726 141.843 114.116 141.666 114.462 141.44L114.462 142.56C114.089 142.826 113.652 143.036 113.152 143.19C112.659 143.336 112.136 143.41 111.582 143.41ZM121.819 141.47C121.819 141.876 121.699 142.226 121.459 142.52C121.226 142.813 120.876 143.036 120.409 143.19C119.942 143.336 119.372 143.41 118.699 143.41C118.006 143.41 117.402 143.326 116.889 143.16C116.376 142.986 115.976 142.743 115.689 142.43C115.402 142.116 115.249 141.753 115.229 141.34L116.929 141.34C116.969 141.526 117.069 141.69 117.229 141.83C117.389 141.963 117.596 142.066 117.849 142.14C118.109 142.213 118.409 142.25 118.749 142.25C119.222 142.25 119.579 142.196 119.819 142.09C120.066 141.983 120.189 141.823 120.189 141.61C120.189 141.456 120.102 141.34 119.929 141.26C119.762 141.18 119.452 141.12 118.999 141.08L117.939 141C117.306 140.946 116.802 140.84 116.429 140.68C116.056 140.52 115.789 140.32 115.629 140.08C115.476 139.833 115.399 139.563 115.399 139.27C115.399 138.863 115.526 138.523 115.779 138.25C116.032 137.976 116.386 137.77 116.839 137.63C117.299 137.49 117.829 137.42 118.429 137.42C119.042 137.42 119.589 137.503 120.069 137.67C120.549 137.836 120.932 138.066 121.219 138.36C121.512 138.653 121.679 138.993 121.719 139.38L120.019 139.38C119.992 139.24 119.916 139.11 119.789 138.99C119.669 138.863 119.492 138.76 119.259 138.68C119.026 138.6 118.722 138.56 118.349 138.56C117.929 138.56 117.606 138.61 117.379 138.71C117.152 138.803 117.039 138.946 117.039 139.14C117.039 139.273 117.109 139.383 117.249 139.47C117.389 139.55 117.649 139.606 118.029 139.64L119.409 139.75C120.022 139.803 120.506 139.906 120.859 140.06C121.212 140.206 121.459 140.4 121.599 140.64C121.746 140.88 121.819 141.156 121.819 141.47ZM128.545 143.41C127.872 143.41 127.268 143.286 126.735 143.04C126.208 142.786 125.792 142.433 125.485 141.98C125.185 141.526 125.035 141 125.035 140.4C125.035 139.806 125.178 139.286 125.465 138.84C125.758 138.393 126.158 138.046 126.665 137.8C127.172 137.546 127.748 137.42 128.395 137.42C129.055 137.42 129.622 137.566 130.095 137.86C130.568 138.146 130.932 138.553 131.185 139.08C131.445 139.606 131.575 140.226 131.575 140.94L126.375 140.94L126.375 139.83L130.675 139.83L130.025 140.23C129.998 139.896 129.915 139.613 129.775 139.38C129.642 139.146 129.458 138.966 129.225 138.84C128.992 138.713 128.718 138.65 128.405 138.65C128.065 138.65 127.768 138.72 127.515 138.86C127.268 138.993 127.075 139.183 126.935 139.43C126.802 139.67 126.735 139.953 126.735 140.28C126.735 140.673 126.822 141.01 126.995 141.29C127.168 141.57 127.422 141.783 127.755 141.93C128.088 142.076 128.492 142.15 128.965 142.15C129.392 142.15 129.822 142.09 130.255 141.97C130.688 141.843 131.078 141.666 131.425 141.44L131.425 142.56C131.052 142.826 130.615 143.036 130.115 143.19C129.622 143.336 129.098 143.41 128.545 143.41ZM135.762 143.41C135.089 143.41 134.485 143.286 133.952 143.04C133.425 142.786 133.009 142.433 132.702 141.98C132.402 141.526 132.252 141 132.252 140.4C132.252 139.806 132.395 139.286 132.682 138.84C132.975 138.393 133.375 138.046 133.882 137.8C134.389 137.546 134.965 137.42 135.612 137.42C136.272 137.42 136.839 137.566 137.312 137.86C137.785 138.146 138.149 138.553 138.402 139.08C138.662 139.606 138.792 140.226 138.792 140.94L133.592 140.94L133.592 139.83L137.892 139.83L137.242 140.23C137.215 139.896 137.132 139.613 136.992 139.38C136.859 139.146 136.675 138.966 136.442 138.84C136.209 138.713 135.935 138.65 135.622 138.65C135.282 138.65 134.985 138.72 134.732 138.86C134.485 138.993 134.292 139.183 134.152 139.43C134.019 139.67 133.952 139.953 133.952 140.28C133.952 140.673 134.039 141.01 134.212 141.29C134.385 141.57 134.639 141.783 134.972 141.93C135.305 142.076 135.709 142.15 136.182 142.15C136.609 142.15 137.039 142.09 137.472 141.97C137.905 141.843 138.295 141.666 138.642 141.44L138.642 142.56C138.269 142.826 137.832 143.036 137.332 143.19C136.839 143.336 136.315 143.41 135.762 143.41ZM139.479 137.57L141.149 137.57L141.509 139.74L141.509 143.26L139.839 143.26L139.839 139.49L139.479 137.57ZM143.679 137.42C144.219 137.42 144.679 137.53 145.059 137.75C145.439 137.963 145.729 138.27 145.929 138.67C146.129 139.07 146.229 139.546 146.229 140.1L146.229 143.26L144.559 143.26L144.559 140.35C144.559 139.836 144.436 139.45 144.189 139.19C143.942 138.923 143.582 138.79 143.109 138.79C142.789 138.79 142.506 138.863 142.259 139.01C142.019 139.15 141.832 139.346 141.699 139.6C141.572 139.853 141.509 140.156 141.509 140.51L140.959 140.22C141.026 139.62 141.186 139.113 141.439 138.7C141.692 138.286 142.012 137.97 142.399 137.75C142.786 137.53 143.212 137.42 143.679 137.42ZM153.635 141.47C153.635 141.876 153.515 142.226 153.275 142.52C153.042 142.813 152.692 143.036 152.225 143.19C151.759 143.336 151.189 143.41 150.515 143.41C149.822 143.41 149.219 143.326 148.705 143.16C148.192 142.986 147.792 142.743 147.505 142.43C147.219 142.116 147.065 141.753 147.045 141.34L148.745 141.34C148.785 141.526 148.885 141.69 149.045 141.83C149.205 141.963 149.412 142.066 149.665 142.14C149.925 142.213 150.225 142.25 150.565 142.25C151.039 142.25 151.395 142.196 151.635 142.09C151.882 141.983 152.005 141.823 152.005 141.61C152.005 141.456 151.919 141.34 151.745 141.26C151.579 141.18 151.269 141.12 150.815 141.08L149.755 141C149.122 140.946 148.619 140.84 148.245 140.68C147.872 140.52 147.605 140.32 147.445 140.08C147.292 139.833 147.215 139.563 147.215 139.27C147.215 138.863 147.342 138.523 147.595 138.25C147.849 137.976 148.202 137.77 148.655 137.63C149.115 137.49 149.645 137.42 150.245 137.42C150.859 137.42 151.405 137.503 151.885 137.67C152.365 137.836 152.749 138.066 153.035 138.36C153.329 138.653 153.495 138.993 153.535 139.38L151.835 139.38C151.809 139.24 151.732 139.11 151.605 138.99C151.485 138.863 151.309 138.76 151.075 138.68C150.842 138.6 150.539 138.56 150.165 138.56C149.745 138.56 149.422 138.61 149.195 138.71C148.969 138.803 148.855 138.946 148.855 139.14C148.855 139.273 148.925 139.383 149.065 139.47C149.205 139.55 149.465 139.606 149.845 139.64L151.225 139.75C151.839 139.803 152.322 139.906 152.675 140.06C153.029 140.206 153.275 140.4 153.415 140.64C153.562 140.88 153.635 141.156 153.635 141.47ZM162.211 141.85L162.211 140.86L162.271 140.65L162.271 139.41L162.211 139.2L162.211 137.57L163.881 137.57L163.881 141.74C163.881 142.46 163.721 143.066 163.401 143.56C163.088 144.053 162.651 144.426 162.091 144.68C161.531 144.933 160.881 145.06 160.141 145.06C159.621 145.06 159.141 144.993 158.701 144.86C158.268 144.726 157.841 144.523 157.421 144.25L157.421 142.94C157.828 143.253 158.251 143.476 158.691 143.61C159.138 143.743 159.588 143.81 160.041 143.81C160.741 143.81 161.278 143.646 161.651 143.32C162.025 142.993 162.211 142.503 162.211 141.85ZM159.621 142.74C159.095 142.74 158.621 142.63 158.201 142.41C157.788 142.19 157.461 141.88 157.221 141.48C156.981 141.08 156.861 140.613 156.861 140.08C156.861 139.546 156.981 139.083 157.221 138.69C157.461 138.29 157.788 137.98 158.201 137.76C158.621 137.533 159.095 137.42 159.621 137.42C160.021 137.42 160.385 137.483 160.711 137.61C161.045 137.73 161.341 137.89 161.601 138.09C161.868 138.29 162.091 138.51 162.271 138.75C162.451 138.983 162.588 139.22 162.681 139.46C162.781 139.693 162.831 139.906 162.831 140.1C162.831 140.346 162.755 140.623 162.601 140.93C162.455 141.236 162.241 141.526 161.961 141.8C161.681 142.073 161.345 142.3 160.951 142.48C160.558 142.653 160.115 142.74 159.621 142.74ZM160.171 141.56C160.605 141.56 160.995 141.443 161.341 141.21C161.695 140.97 162.005 140.593 162.271 140.08C162.005 139.56 161.695 139.183 161.341 138.95C160.988 138.71 160.598 138.59 160.171 138.59C159.831 138.59 159.538 138.653 159.291 138.78C159.051 138.9 158.865 139.073 158.731 139.3C158.605 139.52 158.541 139.78 158.541 140.08C158.541 140.373 158.605 140.633 158.731 140.86C158.858 141.08 159.045 141.253 159.291 141.38C159.538 141.5 159.831 141.56 160.171 141.56ZM167.52 143.41C166.994 143.41 166.544 143.303 166.17 143.09C165.804 142.87 165.52 142.56 165.32 142.16C165.127 141.76 165.03 141.286 165.03 140.74L165.03 137.57L166.7 137.57L166.7 140.49C166.7 140.996 166.82 141.383 167.06 141.65C167.3 141.91 167.64 142.04 168.08 142.04C168.407 142.04 168.684 141.973 168.91 141.84C169.144 141.7 169.324 141.5 169.45 141.24C169.577 140.98 169.64 140.676 169.64 140.33L170.18 140.62C170.114 141.206 169.957 141.71 169.71 142.13C169.464 142.543 169.15 142.86 168.77 143.08C168.397 143.3 167.98 143.41 167.52 143.41ZM169.99 143.26L169.64 141.1L169.64 137.57L171.31 137.57L171.31 141.35L171.66 143.26L169.99 143.26ZM172.65 135.56L174.32 135.56L174.32 143.26L172.65 143.26L172.65 135.56ZM181.348 143.41C180.674 143.41 180.071 143.286 179.538 143.04C179.011 142.786 178.594 142.433 178.288 141.98C177.988 141.526 177.838 141 177.838 140.4C177.838 139.806 177.981 139.286 178.268 138.84C178.561 138.393 178.961 138.046 179.468 137.8C179.974 137.546 180.551 137.42 181.198 137.42C181.858 137.42 182.424 137.566 182.898 137.86C183.371 138.146 183.734 138.553 183.988 139.08C184.248 139.606 184.378 140.226 184.378 140.94L179.178 140.94L179.178 139.83L183.478 139.83L182.828 140.23C182.801 139.896 182.718 139.613 182.578 139.38C182.444 139.146 182.261 138.966 182.028 138.84C181.794 138.713 181.521 138.65 181.208 138.65C180.868 138.65 180.571 138.72 180.318 138.86C180.071 138.993 179.878 139.183 179.738 139.43C179.604 139.67 179.538 139.953 179.538 140.28C179.538 140.673 179.624 141.01 179.798 141.29C179.971 141.57 180.224 141.783 180.558 141.93C180.891 142.076 181.294 142.15 181.768 142.15C182.194 142.15 182.624 142.09 183.058 141.97C183.491 141.843 183.881 141.666 184.228 141.44L184.228 142.56C183.854 142.826 183.418 143.036 182.918 143.19C182.424 143.336 181.901 143.41 181.348 143.41ZM185.065 137.57L186.735 137.57L187.095 139.74L187.095 143.26L185.425 143.26L185.425 139.49L185.065 137.57ZM189.265 137.42C189.805 137.42 190.265 137.53 190.645 137.75C191.025 137.963 191.315 138.27 191.515 138.67C191.715 139.07 191.815 139.546 191.815 140.1L191.815 143.26L190.145 143.26L190.145 140.35C190.145 139.836 190.022 139.45 189.775 139.19C189.528 138.923 189.168 138.79 188.695 138.79C188.375 138.79 188.092 138.863 187.845 139.01C187.605 139.15 187.418 139.346 187.285 139.6C187.158 139.853 187.095 140.156 187.095 140.51L186.545 140.22C186.612 139.62 186.772 139.113 187.025 138.7C187.278 138.286 187.598 137.97 187.985 137.75C188.372 137.53 188.798 137.42 189.265 137.42ZM200.79 143.26L200.55 141.11L200.87 140.43L200.56 139.6L201.01 135.56L202.74 135.56L202.19 140.3L202.52 143.26L200.79 143.26ZM201.2 140.42C201.093 141.02 200.897 141.546 200.61 142C200.33 142.446 199.973 142.793 199.54 143.04C199.113 143.286 198.633 143.41 198.1 143.41C197.547 143.41 197.057 143.286 196.63 143.04C196.203 142.786 195.87 142.436 195.63 141.99C195.397 141.536 195.28 141.013 195.28 140.42C195.28 139.82 195.397 139.296 195.63 138.85C195.87 138.396 196.203 138.046 196.63 137.8C197.057 137.546 197.547 137.42 198.1 137.42C198.633 137.42 199.113 137.543 199.54 137.79C199.973 138.036 200.333 138.386 200.62 138.84C200.907 139.286 201.1 139.813 201.2 140.42ZM196.97 140.42C196.97 140.753 197.037 141.046 197.17 141.3C197.31 141.553 197.5 141.753 197.74 141.9C197.98 142.04 198.257 142.11 198.57 142.11C198.883 142.11 199.177 142.04 199.45 141.9C199.73 141.753 199.977 141.553 200.19 141.3C200.403 141.046 200.57 140.753 200.69 140.42C200.57 140.086 200.403 139.793 200.19 139.54C199.977 139.28 199.73 139.08 199.45 138.94C199.177 138.793 198.883 138.72 198.57 138.72C198.257 138.72 197.98 138.793 197.74 138.94C197.5 139.08 197.31 139.28 197.17 139.54C197.037 139.793 196.97 140.086 196.97 140.42ZM206.867 143.41C206.16 143.41 205.54 143.286 205.007 143.04C204.473 142.786 204.057 142.436 203.757 141.99C203.457 141.536 203.307 141.013 203.307 140.42C203.307 139.82 203.457 139.296 203.757 138.85C204.057 138.396 204.473 138.046 205.007 137.8C205.54 137.546 206.16 137.42 206.867 137.42C207.573 137.42 208.193 137.546 208.727 137.8C209.26 138.046 209.673 138.396 209.967 138.85C210.267 139.296 210.417 139.82 210.417 140.42C210.417 141.013 210.267 141.536 209.967 141.99C209.673 142.436 209.26 142.786 208.727 143.04C208.193 143.286 207.573 143.41 206.867 143.41ZM206.867 142.14C207.253 142.14 207.583 142.07 207.857 141.93C208.137 141.79 208.35 141.593 208.497 141.34C208.65 141.08 208.727 140.773 208.727 140.42C208.727 140.06 208.65 139.753 208.497 139.5C208.35 139.24 208.137 139.04 207.857 138.9C207.583 138.76 207.253 138.69 206.867 138.69C206.487 138.69 206.157 138.76 205.877 138.9C205.597 139.04 205.38 139.24 205.227 139.5C205.08 139.753 205.007 140.06 205.007 140.42C205.007 140.773 205.08 141.08 205.227 141.34C205.38 141.593 205.597 141.79 205.877 141.93C206.157 142.07 206.487 142.14 206.867 142.14ZM214.6 143.41C213.926 143.41 213.323 143.286 212.79 143.04C212.263 142.786 211.846 142.433 211.54 141.98C211.24 141.526 211.09 141 211.09 140.4C211.09 139.806 211.233 139.286 211.52 138.84C211.813 138.393 212.213 138.046 212.72 137.8C213.226 137.546 213.803 137.42 214.45 137.42C215.11 137.42 215.676 137.566 216.15 137.86C216.623 138.146 216.986 138.553 217.24 139.08C217.5 139.606 217.63 140.226 217.63 140.94L212.43 140.94L212.43 139.83L216.73 139.83L216.08 140.23C216.053 139.896 215.97 139.613 215.83 139.38C215.696 139.146 215.513 138.966 215.28 138.84C215.046 138.713 214.773 138.65 214.46 138.65C214.12 138.65 213.823 138.72 213.57 138.86C213.323 138.993 213.13 139.183 212.99 139.43C212.856 139.67 212.79 139.953 212.79 140.28C212.79 140.673 212.876 141.01 213.05 141.29C213.223 141.57 213.476 141.783 213.81 141.93C214.143 142.076 214.546 142.15 215.02 142.15C215.446 142.15 215.876 142.09 216.31 141.97C216.743 141.843 217.133 141.666 217.48 141.44L217.48 142.56C217.106 142.826 216.67 143.036 216.17 143.19C215.676 143.336 215.153 143.41 214.6 143.41ZM221.165 135.56L222.835 135.56L222.835 143.26L221.165 143.26L221.165 135.56ZM225.005 137.42C225.545 137.42 226.005 137.53 226.385 137.75C226.765 137.963 227.055 138.27 227.255 138.67C227.455 139.07 227.555 139.546 227.555 140.1L227.555 143.26L225.885 143.26L225.885 140.35C225.885 139.836 225.762 139.45 225.515 139.19C225.268 138.923 224.912 138.79 224.445 138.79C224.118 138.79 223.832 138.863 223.585 139.01C223.345 139.15 223.158 139.346 223.025 139.6C222.898 139.853 222.835 140.156 222.835 140.51L222.285 140.22C222.358 139.62 222.518 139.113 222.765 138.7C223.018 138.286 223.338 137.97 223.725 137.75C224.112 137.53 224.538 137.42 225.005 137.42ZM231.944 143.41C231.27 143.41 230.667 143.286 230.134 143.04C229.607 142.786 229.19 142.433 228.884 141.98C228.584 141.526 228.434 141 228.434 140.4C228.434 139.806 228.577 139.286 228.864 138.84C229.157 138.393 229.557 138.046 230.064 137.8C230.57 137.546 231.147 137.42 231.794 137.42C232.454 137.42 233.02 137.566 233.494 137.86C233.967 138.146 234.33 138.553 234.584 139.08C234.844 139.606 234.974 140.226 234.974 140.94L229.774 140.94L229.774 139.83L234.074 139.83L233.424 140.23C233.397 139.896 233.314 139.613 233.174 139.38C233.04 139.146 232.857 138.966 232.624 138.84C232.39 138.713 232.117 138.65 231.804 138.65C231.464 138.65 231.167 138.72 230.914 138.86C230.667 138.993 230.474 139.183 230.334 139.43C230.2 139.67 230.134 139.953 230.134 140.28C230.134 140.673 230.22 141.01 230.394 141.29C230.567 141.57 230.82 141.783 231.154 141.93C231.487 142.076 231.89 142.15 232.364 142.15C232.79 142.15 233.22 142.09 233.654 141.97C234.087 141.843 234.477 141.666 234.824 141.44L234.824 142.56C234.45 142.826 234.014 143.036 233.514 143.19C233.02 143.336 232.497 143.41 231.944 143.41ZM235.253 138.83L235.253 138.09L236.443 137.7L237.153 136.07L238.113 136.07L238.113 137.57L240.633 137.57L240.633 138.83L238.113 138.83L238.113 140.9C238.113 141.34 238.203 141.65 238.383 141.83C238.57 142.003 238.89 142.09 239.343 142.09C239.63 142.09 239.883 142.063 240.103 142.01C240.323 141.956 240.533 141.88 240.733 141.78L240.733 143.08C240.54 143.16 240.283 143.233 239.963 143.3C239.643 143.373 239.313 143.41 238.973 143.41C238.38 143.41 237.896 143.316 237.523 143.13C237.156 142.936 236.883 142.67 236.703 142.33C236.53 141.99 236.443 141.593 236.443 141.14L236.443 138.83L235.253 138.83ZM241.374 143.26L241.374 142.08L245.554 138.51L246.674 138.81L241.404 138.81L241.404 137.57L247.314 137.57L247.314 138.75L243.134 142.32L242.174 142.03L247.334 142.03L247.334 143.26L241.374 143.26ZM251.416 143.41C250.743 143.41 250.14 143.286 249.606 143.04C249.08 142.786 248.663 142.433 248.356 141.98C248.056 141.526 247.906 141 247.906 140.4C247.906 139.806 248.05 139.286 248.336 138.84C248.63 138.393 249.03 138.046 249.536 137.8C250.043 137.546 250.62 137.42 251.266 137.42C251.926 137.42 252.493 137.566 252.966 137.86C253.44 138.146 253.803 138.553 254.056 139.08C254.316 139.606 254.446 140.226 254.446 140.94L249.246 140.94L249.246 139.83L253.546 139.83L252.896 140.23C252.87 139.896 252.786 139.613 252.646 139.38C252.513 139.146 252.33 138.966 252.096 138.84C251.863 138.713 251.59 138.65 251.276 138.65C250.936 138.65 250.64 138.72 250.386 138.86C250.14 138.993 249.946 139.183 249.806 139.43C249.673 139.67 249.606 139.953 249.606 140.28C249.606 140.673 249.693 141.01 249.866 141.29C250.04 141.57 250.293 141.783 250.626 141.93C250.96 142.076 251.363 142.15 251.836 142.15C252.263 142.15 252.693 142.09 253.126 141.97C253.56 141.843 253.95 141.666 254.296 141.44L254.296 142.56C253.923 142.826 253.486 143.036 252.986 143.19C252.493 143.336 251.97 143.41 251.416 143.41ZM255.423 135.56L257.093 135.56L257.093 143.26L255.423 143.26L255.423 135.56ZM262.093 136.67C261.626 136.67 261.289 136.763 261.083 136.95C260.876 137.13 260.773 137.423 260.773 137.83L260.773 143.26L259.103 143.26L259.103 137.94C259.103 137.42 259.203 136.973 259.403 136.6C259.609 136.22 259.919 135.926 260.333 135.72C260.753 135.513 261.273 135.41 261.893 135.41C262.179 135.41 262.436 135.433 262.663 135.48C262.889 135.52 263.119 135.576 263.353 135.65L263.353 136.91C263.159 136.83 262.959 136.77 262.753 136.73C262.546 136.69 262.326 136.67 262.093 136.67ZM257.913 139.26L257.913 138L263.233 138L263.233 139.26L257.913 139.26ZM269.022 143.26L268.782 141.11L269.102 140.43L268.792 139.6L269.242 135.56L270.972 135.56L270.422 140.3L270.752 143.26L269.022 143.26ZM269.432 140.42C269.326 141.02 269.129 141.546 268.842 142C268.562 142.446 268.206 142.793 267.772 143.04C267.346 143.286 266.866 143.41 266.332 143.41C265.779 143.41 265.289 143.286 264.862 143.04C264.436 142.786 264.102 142.436 263.862 141.99C263.629 141.536 263.512 141.013 263.512 140.42C263.512 139.82 263.629 139.296 263.862 138.85C264.102 138.396 264.436 138.046 264.862 137.8C265.289 137.546 265.779 137.42 266.332 137.42C266.866 137.42 267.346 137.543 267.772 137.79C268.206 138.036 268.566 138.386 268.852 138.84C269.139 139.286 269.332 139.813 269.432 140.42ZM265.202 140.42C265.202 140.753 265.269 141.046 265.402 141.3C265.542 141.553 265.732 141.753 265.972 141.9C266.212 142.04 266.489 142.11 266.802 142.11C267.116 142.11 267.409 142.04 267.682 141.9C267.962 141.753 268.209 141.553 268.422 141.3C268.636 141.046 268.802 140.753 268.922 140.42C268.802 140.086 268.636 139.793 268.422 139.54C268.209 139.28 267.962 139.08 267.682 138.94C267.409 138.793 267.116 138.72 266.802 138.72C266.489 138.72 266.212 138.793 265.972 138.94C265.732 139.08 265.542 139.28 265.402 139.54C265.269 139.793 265.202 140.086 265.202 140.42ZM275.049 143.41C274.376 143.41 273.772 143.286 273.239 143.04C272.712 142.786 272.296 142.433 271.989 141.98C271.689 141.526 271.539 141 271.539 140.4C271.539 139.806 271.682 139.286 271.969 138.84C272.262 138.393 272.662 138.046 273.169 137.8C273.676 137.546 274.252 137.42 274.899 137.42C275.559 137.42 276.126 137.566 276.599 137.86C277.072 138.146 277.436 138.553 277.689 139.08C277.949 139.606 278.079 140.226 278.079 140.94L272.879 140.94L272.879 139.83L277.179 139.83L276.529 140.23C276.502 139.896 276.419 139.613 276.279 139.38C276.146 139.146 275.962 138.966 275.729 138.84C275.496 138.713 275.222 138.65 274.909 138.65C274.569 138.65 274.272 138.72 274.019 138.86C273.772 138.993 273.579 139.183 273.439 139.43C273.306 139.67 273.239 139.953 273.239 140.28C273.239 140.673 273.326 141.01 273.499 141.29C273.672 141.57 273.926 141.783 274.259 141.93C274.592 142.076 274.996 142.15 275.469 142.15C275.896 142.15 276.326 142.09 276.759 141.97C277.192 141.843 277.582 141.666 277.929 141.44L277.929 142.56C277.556 142.826 277.119 143.036 276.619 143.19C276.126 143.336 275.602 143.41 275.049 143.41ZM279.816 143.35C279.636 143.35 279.469 143.306 279.316 143.22C279.169 143.133 279.052 143.016 278.966 142.87C278.879 142.716 278.836 142.55 278.836 142.37C278.836 142.183 278.879 142.016 278.966 141.87C279.052 141.716 279.169 141.596 279.316 141.51C279.469 141.423 279.636 141.38 279.816 141.38C280.002 141.38 280.169 141.423 280.316 141.51C280.469 141.596 280.589 141.716 280.676 141.87C280.762 142.016 280.806 142.183 280.806 142.37C280.806 142.55 280.762 142.716 280.676 142.87C280.589 143.016 280.469 143.133 280.316 143.22C280.169 143.306 280.002 143.35 279.816 143.35Z" fill="#848484"/>
<defs>
<filter id="filter0_f_258_561" x="-24.2" y="19.5597" width="429.4" height="127.4" filterUnits="userSpaceOnUse" color-interpolation-filters="sRGB">
<feFlood flood-opacity="0" result="BackgroundImageFix"/>
<feBlend mode="normal" in="SourceGraphic" in2="BackgroundImageFix" result="shape"/>
<feGaussianBlur stdDeviation="13.1" result="effect1_foregroundBlur_258_561"/>
</filter>
<filter id="filter1_f_258_561" x="85.4042" y="-3.8147e-06" width="70.4667" height="56.1825" filterUnits="userSpaceOnUse" color-interpolation-filters="sRGB">
<feFlood flood-opacity="0" result="BackgroundImageFix"/>
<feBlend mode="normal" in="SourceGraphic" in2="BackgroundImageFix" result="shape"/>
<feGaussianBlur stdDeviation="10.1" result="effect1_foregroundBlur_258_561"/>
</filter>
<filter id="filter2_f_258_561" x="241.273" y="10.5146" width="59.7047" height="55.1387" filterUnits="userSpaceOnUse" color-interpolation-filters="sRGB">
<feFlood flood-opacity="0" result="BackgroundImageFix"/>
<feBlend mode="normal" in="SourceGraphic" in2="BackgroundImageFix" result="shape"/>
<feGaussianBlur stdDeviation="10.1" result="effect1_foregroundBlur_258_561"/>
</filter>
<filter id="filter3_f_258_561" x="287.549" y="98.0382" width="83.4676" height="57.1034" filterUnits="userSpaceOnUse" color-interpolation-filters="sRGB">
<feFlood flood-opacity="0" result="BackgroundImageFix"/>
<feBlend mode="normal" in="SourceGraphic" in2="BackgroundImageFix" result="shape"/>
<feGaussianBlur stdDeviation="10.1" result="effect1_foregroundBlur_258_561"/>
</filter>
<filter id="filter4_f_258_561" x="9.01133" y="100.201" width="98.1204" height="64.8034" filterUnits="userSpaceOnUse" color-interpolation-filters="sRGB">
<feFlood flood-opacity="0" result="BackgroundImageFix"/>
<feBlend mode="normal" in="SourceGraphic" in2="BackgroundImageFix" result="shape"/>
<feGaussianBlur stdDeviation="12.8" result="effect1_foregroundBlur_258_561"/>
</filter>
</defs>
</svg>
