<svg width="390" height="1530" viewBox="0 0 390 1530" fill="none" xmlns="http://www.w3.org/2000/svg">
<g id="Home" clip-path="url(#clip0_71_41)">
<rect width="390" height="1530" fill="url(#paint0_linear_71_41)"/>
<g id="scroll" clip-path="url(#clip1_71_41)">
<g id="Vector" filter="url(#filter0_f_71_41)">
<path d="M394.534 -44.1691C412.706 7.31604 331.171 75.9734 212.42 109.181C93.6694 142.389 -17.3287 127.573 -35.5009 76.0878C-53.6732 24.6027 27.8619 -44.0546 146.613 -77.2627C265.363 -110.471 376.362 -95.6542 394.534 -44.1691Z" fill="#FF0085"/>
<path d="M353.578 -32.7161C367.105 5.60742 298.994 58.788 201.449 86.066C103.904 113.344 13.8622 104.39 0.335476 66.0664C-13.1912 27.7429 54.9193 -25.4377 152.465 -52.7157C250.01 -79.9937 340.052 -71.0396 353.578 -32.7161Z" fill="#FF00F5"/>
<path d="M313.339 -24.5439C321.4 -1.70461 273.308 32.0865 205.922 50.9308C138.535 69.775 77.3728 66.5364 69.3115 43.6971C61.2501 20.8579 109.343 -12.9333 176.729 -31.7775C244.115 -50.6217 305.278 -47.3831 313.339 -24.5439Z" fill="#00BEAE"/>
<path d="M255.319 -8.31874C259.281 2.90733 232.315 20.4472 195.087 30.8576C157.86 41.2681 124.469 40.6069 120.506 29.3808C116.544 18.1548 143.511 0.614894 180.738 -9.79556C217.966 -20.206 251.356 -19.5448 255.319 -8.31874Z" fill="#00FE96"/>
</g>
<g id="Scroll">
<g id="Groepheader">
<path id="Rectangle 4" d="M34 85C34 66.7746 48.7746 52 67 52C85.2254 52 100 66.7746 100 85C100 103.225 85.2254 118 67 118C48.7746 118 34 103.225 34 85Z" fill="#F1F1F1"/>
<text id="Groepnaam" fill="white" style="white-space: pre" xml:space="preserve" font-family="Unbounded" font-size="32" letter-spacing="0em"><tspan x="113" y="96">It Hok</tspan></text>
<text id="Actieve leden" fill="white" style="white-space: pre" xml:space="preserve" font-family="Unbounded" font-size="20" letter-spacing="0em"><tspan x="40" y="149">3 actief</tspan></text>
<g id="Group 13">
<g id="Ellipse 6" filter="url(#filter1_f_71_41)">
<circle cx="20.5" cy="20.5" r="20.5" transform="matrix(-1 0 0 1 357 60)" fill="url(#paint1_radial_71_41)" fill-opacity="0.6"/>
</g>
<g id="Vector_2">
<path d="M325 82.1C336.5 93.6 336.5 93.6 336.5 93.6L348 82.1H343.4L336.5 89L329.6 82.1H325Z" fill="#F1F1F1"/>
<path d="M348 77.5C336.5 66 336.5 66 336.5 66L325 77.5H329.6L336.5 70.6L343.4 77.5H348Z" fill="#F1F1F1"/>
</g>
</g>
</g>
<g id="Drankenlijstbtn">
<g id="Group 14">
<mask id="mask0_71_41" style="mask-type:alpha" maskUnits="userSpaceOnUse" x="-20" y="570" width="420" height="120">
<path id="Rectangle 3" d="M-3 595.954C-3 595.954 193.5 574.5 270.5 595.954C347.5 617.408 382 595.954 382 595.954C382 595.954 382 637 289 660.5C196 684 -3 676.954 -3 676.954V595.954Z" fill="white"/>
</mask>
<g mask="url(#mask0_71_41)">
<g id="Vector_3" filter="url(#filter2_f_71_41)">
<path d="M397.047 569.079C404.512 605.811 307.918 633.222 181.299 630.303C54.679 627.384 -54.018 595.241 -61.4832 558.509C-68.9483 521.777 27.6454 494.366 154.265 497.285C280.884 500.204 389.581 532.347 397.047 569.079Z" fill="#00FE96"/>
<path d="M353.377 568.072C358.934 595.414 279.123 615.635 175.114 613.238C71.1051 610.84 -17.7154 586.732 -23.2721 559.39C-28.8289 532.048 50.9823 511.827 154.991 514.224C259 516.622 347.821 540.731 353.377 568.072Z" fill="#FF00F5"/>
<path d="M383.645 611.713C386.919 627.819 331.325 639.533 259.473 637.876C187.622 636.22 126.721 621.821 123.448 605.715C120.175 589.609 175.768 577.895 247.62 579.552C319.471 581.208 380.372 595.607 383.645 611.713Z" fill="#FF0085"/>
<path d="M249.256 563.681C250.883 571.691 220.025 577.442 180.33 576.526C140.636 575.611 107.138 568.377 105.51 560.368C103.883 552.359 134.742 546.608 174.436 547.523C214.13 548.438 247.628 555.672 249.256 563.681Z" fill="#00FE96"/>
</g>
</g>
</g>
<text id="Streepjessoorten" fill="white" style="white-space: pre" xml:space="preserve" font-family="Unbounded" font-size="20" letter-spacing="0em"><tspan x="40" y="624">Drankenlijst</tspan></text>
</g>
<g id="Streepjessoorten_2">
<g id="Group 7">
<mask id="mask1_71_41" style="mask-type:alpha" maskUnits="userSpaceOnUse" x="5" y="452" width="380" height="80">
<path id="Rectangle 3_2" d="M20 492C20 478.193 31.1929 467 45 467L345 467C358.807 467 370 478.193 370 492C370 505.807 358.807 517 345 517L45 517C31.1929 517 20 505.807 20 492Z" fill="white"/>
</mask>
<g mask="url(#mask1_71_41)">
<g id="Ellipse 2" filter="url(#filter3_f_71_41)">
<ellipse cx="104.586" cy="25.3199" rx="104.586" ry="25.3199" transform="matrix(0.994726 -0.102564 0.510633 0.859799 -3 473.453)" fill="#F1F1F1"/>
</g>
<g id="Ellipse 3" filter="url(#filter4_f_71_41)">
<ellipse cx="85.9095" cy="18.8471" rx="85.9095" ry="18.8471" transform="matrix(0.994726 -0.102564 0.510633 0.859799 17.6443 477.231)" fill="#FF00F5"/>
</g>
<g id="Ellipse 4" filter="url(#filter5_f_71_41)">
<ellipse cx="59.3481" cy="11.2321" rx="59.3481" ry="11.2321" transform="matrix(0.994726 -0.102564 0.510633 0.859799 54.9961 479.633)" fill="#00BEAE"/>
</g>
<g id="Ellipse 5" filter="url(#filter6_f_71_41)">
<ellipse cx="32.7867" cy="5.52088" rx="32.7867" ry="5.52088" transform="matrix(0.994726 -0.102564 0.510633 0.859799 82.6826 481.99)" fill="#00FE96"/>
</g>
</g>
</g>
<text id="Streepjessoorten_3" fill="white" style="white-space: pre" xml:space="preserve" font-family="Unbounded" font-size="20" letter-spacing="0em"><tspan x="278" y="502">&#x20ac; 1,50</tspan></text>
<text id="Streepjessoorten_4" fill="white" style="white-space: pre" xml:space="preserve" font-family="Unbounded" font-size="20" letter-spacing="0em"><tspan x="44" y="497">cat4</tspan></text>
</g>
<g id="Streepjessoorten_5">
<g id="Group 7_2">
<mask id="mask2_71_41" style="mask-type:alpha" maskUnits="userSpaceOnUse" x="5" y="393" width="380" height="80">
<path id="Rectangle 3_3" d="M20 433C20 419.193 31.1929 408 45 408L345 408C358.807 408 370 419.193 370 433C370 446.807 358.807 458 345 458L45 458C31.1929 458 20 446.807 20 433Z" fill="white"/>
</mask>
<g mask="url(#mask2_71_41)">
<g id="Ellipse 2_2" filter="url(#filter7_f_71_41)">
<ellipse cx="131.002" cy="36.5175" rx="131.002" ry="36.5175" transform="matrix(0.999973 -0.00740262 0.426463 0.904505 -31.1467 409.94)" fill="#816C00"/>
</g>
<g id="Ellipse 3_2" filter="url(#filter8_f_71_41)">
<ellipse cx="107.609" cy="27.1822" rx="107.609" ry="27.1822" transform="matrix(0.999973 -0.00740262 0.426463 0.904505 -6 412.593)" fill="#FCD145"/>
</g>
<g id="Ellipse 4_2" filter="url(#filter9_f_71_41)">
<ellipse cx="74.3386" cy="16.1995" rx="74.3386" ry="16.1995" transform="matrix(0.999973 -0.00740262 0.426463 0.904505 41.5094 426.847)" fill="#FF00F5"/>
</g>
<g id="Ellipse 5_2" filter="url(#filter10_f_71_41)">
<ellipse cx="41.0682" cy="7.96246" rx="41.0682" ry="7.96246" transform="matrix(0.999973 -0.00740262 0.426463 0.904505 76.2125 434.066)" fill="#3D3D3D"/>
</g>
</g>
</g>
<text id="Streepjessoorten_6" fill="white" style="white-space: pre" xml:space="preserve" font-family="Unbounded" font-size="20" letter-spacing="0em"><tspan x="278" y="443">&#x20ac; 1,50</tspan></text>
<text id="Streepjessoorten_7" fill="white" style="white-space: pre" xml:space="preserve" font-family="Unbounded" font-size="20" letter-spacing="0em"><tspan x="45" y="440">cat3</tspan></text>
</g>
<g id="Streepjessoorten_8">
<g id="Group 7_3">
<mask id="mask3_71_41" style="mask-type:alpha" maskUnits="userSpaceOnUse" x="5" y="334" width="380" height="80">
<path id="Rectangle 3_4" d="M20 374C20 360.193 31.1929 349 45 349L345 349C358.807 349 370 360.193 370 374C370 387.807 358.807 399 345 399L45 399C31.1929 399 20 387.807 20 374Z" fill="white"/>
</mask>
<g mask="url(#mask3_71_41)">
<g id="Ellipse 2_3" filter="url(#filter11_f_71_41)">
<ellipse cx="132.564" cy="36.9399" rx="132.564" ry="36.9399" transform="matrix(0.994726 -0.102564 0.510633 0.859799 -49 349.192)" fill="#FF0085"/>
</g>
<g id="Ellipse 3_3" filter="url(#filter12_f_71_41)">
<ellipse cx="108.892" cy="27.4966" rx="108.892" ry="27.4966" transform="matrix(0.994726 -0.102564 0.510633 0.859799 -22.2003 355.046)" fill="#FF00F5"/>
</g>
<g id="Ellipse 4_3" filter="url(#filter13_f_71_41)">
<ellipse cx="75.2249" cy="16.3869" rx="75.2249" ry="16.3869" transform="matrix(0.994726 -0.102564 0.510633 0.859799 25.8136 359.219)" fill="#00BEAE"/>
</g>
<g id="Ellipse 5_3" filter="url(#filter14_f_71_41)">
<ellipse cx="41.5578" cy="8.05456" rx="41.5578" ry="8.05456" transform="matrix(0.994726 -0.102564 0.510633 0.859799 61.465 363.145)" fill="#FF0085"/>
</g>
</g>
</g>
<text id="Streepjessoorten_9" fill="white" style="white-space: pre" xml:space="preserve" font-family="Unbounded" font-size="20" letter-spacing="0em"><tspan x="278" y="384">&#x20ac; 2,50</tspan></text>
<text id="Streepjessoorten_10" transform="translate(44 359)" fill="white" style="white-space: pre" xml:space="preserve" font-family="Unbounded" font-size="20" letter-spacing="0em"><tspan x="0" y="20">Speciaal&#10;</tspan></text>
</g>
<g id="Streepjessoorten_11">
<g id="Group 7_4">
<mask id="mask4_71_41" style="mask-type:alpha" maskUnits="userSpaceOnUse" x="4" y="275" width="381" height="80">
<path id="Rectangle 3_5" d="M19.9999 315C19.9999 301.193 31.1928 290 44.9999 290L345 290C358.807 290 370 301.193 370 315C370 328.807 358.807 340 345 340L44.9999 340C31.1928 340 19.9999 328.807 19.9999 315Z" fill="white"/>
</mask>
<g mask="url(#mask4_71_41)">
<g id="Ellipse 2_4" filter="url(#filter15_f_71_41)">
<ellipse cx="125.503" cy="30.3839" rx="125.503" ry="30.3839" transform="matrix(0.994726 -0.102564 0.510633 0.859799 -31.0347 289.466)" fill="#3A747F"/>
</g>
<g id="Ellipse 3_4" filter="url(#filter16_f_71_41)">
<ellipse cx="103.092" cy="22.6166" rx="103.092" ry="22.6166" transform="matrix(0.994726 -0.102564 0.510633 0.859799 -6.2616 293.999)" fill="#848484"/>
</g>
<g id="Ellipse 4_4" filter="url(#filter17_f_71_41)">
<ellipse cx="71.2178" cy="13.4786" rx="71.2178" ry="13.4786" transform="matrix(0.994726 -0.102564 0.510633 0.859799 38.5607 296.882)" fill="#848484"/>
</g>
<g id="Ellipse 5_4" filter="url(#filter18_f_71_41)">
<ellipse cx="39.3441" cy="6.62506" rx="39.3441" ry="6.62506" transform="matrix(0.994726 -0.102564 0.510633 0.859799 71.7844 299.71)" fill="#8A8A8A"/>
</g>
</g>
</g>
<text id="Streepjessoorten_12" fill="white" style="white-space: pre" xml:space="preserve" font-family="Unbounded" font-size="20" letter-spacing="0em"><tspan x="278" y="322">&#x20ac; 1,50</tspan></text>
<text id="Streepjessoorten_13" fill="white" style="white-space: pre" xml:space="preserve" font-family="Unbounded" font-size="20" letter-spacing="0em"><tspan x="44" y="320">Normaal</tspan></text>
</g>
<g id="Counter">
<g id="plusbtn" filter="url(#filter19_f_71_41)">
<g clip-path="url(#paint7_diamond_71_41_clip_path)" data-figma-skip-parse="true"><g transform="matrix(0.037 -0.0475 0.0987795 0.076944 307.5 226.5)"><rect x="0" y="0" width="1139.44" height="584.133" fill="url(#paint7_diamond_71_41)" opacity="0.8" shape-rendering="crispEdges"/><rect x="0" y="0" width="1139.44" height="584.133" transform="scale(1 -1)" fill="url(#paint7_diamond_71_41)" opacity="0.8" shape-rendering="crispEdges"/><rect x="0" y="0" width="1139.44" height="584.133" transform="scale(-1 1)" fill="url(#paint7_diamond_71_41)" opacity="0.8" shape-rendering="crispEdges"/><rect x="0" y="0" width="1139.44" height="584.133" transform="scale(-1)" fill="url(#paint7_diamond_71_41)" opacity="0.8" shape-rendering="crispEdges"/></g></g><rect x="245" y="190" width="125" height="73" rx="25" data-figma-gradient-fill="{&#34;type&#34;:&#34;GRADIENT_DIAMOND&#34;,&#34;stops&#34;:[{&#34;color&#34;:{&#34;r&#34;:0.29882353544235229,&#34;g&#34;:0.99607843160629272,&#34;b&#34;:0.0,&#34;a&#34;:0.0},&#34;position&#34;:0.0},{&#34;color&#34;:{&#34;r&#34;:0.0,&#34;g&#34;:0.99607843160629272,&#34;b&#34;:0.58104574680328369,&#34;a&#34;:1.0},&#34;position&#34;:1.0}],&#34;stopsVar&#34;:[{&#34;color&#34;:{&#34;r&#34;:0.29882353544235229,&#34;g&#34;:0.99607843160629272,&#34;b&#34;:0.0,&#34;a&#34;:0.0},&#34;position&#34;:0.0},{&#34;color&#34;:{&#34;r&#34;:0.0,&#34;g&#34;:0.99607843160629272,&#34;b&#34;:0.58104574680328369,&#34;a&#34;:1.0},&#34;position&#34;:1.0}],&#34;transform&#34;:{&#34;m00&#34;:74.0,&#34;m01&#34;:197.55899047851562,&#34;m02&#34;:171.72050476074219,&#34;m10&#34;:-95.000007629394531,&#34;m11&#34;:153.88804626464844,&#34;m12&#34;:197.05598449707031},&#34;opacity&#34;:0.80000001192092896,&#34;blendMode&#34;:&#34;NORMAL&#34;,&#34;visible&#34;:true}"/>
<rect x="245" y="190" width="125" height="73" rx="25" fill="url(#paint8_linear_71_41)" fill-opacity="0.6"/>
</g>
<g id="addbtn" filter="url(#filter20_f_71_41)">
<rect x="158" y="190" width="73" height="73" rx="25" fill="url(#paint9_linear_71_41)" fill-opacity="0.5"/>
<rect x="158" y="190" width="73" height="73" rx="25" fill="white" fill-opacity="0.3"/>
</g>
<path id="plus_icon" d="M306 228H294V224H306V212H310V224H322V228H310V240H306V228Z" fill="#F1F1F1"/>
<text id="Addcounter" fill="white" style="white-space: pre" xml:space="preserve" font-family="Unbounded" font-size="32" font-weight="600" letter-spacing="0em"><tspan x="180" y="238">8</tspan></text>
<g id="plusbtn_2" filter="url(#filter21_f_71_41)">
<g clip-path="url(#paint10_diamond_71_41_clip_path)" data-figma-skip-parse="true"><g transform="matrix(0.009 -0.0595 0.123734 0.0187161 81.5 226.5)"><rect x="0" y="0" width="773.973" height="546.534" fill="url(#paint10_diamond_71_41)" opacity="0.8" shape-rendering="crispEdges"/><rect x="0" y="0" width="773.973" height="546.534" transform="scale(1 -1)" fill="url(#paint10_diamond_71_41)" opacity="0.8" shape-rendering="crispEdges"/><rect x="0" y="0" width="773.973" height="546.534" transform="scale(-1 1)" fill="url(#paint10_diamond_71_41)" opacity="0.8" shape-rendering="crispEdges"/><rect x="0" y="0" width="773.973" height="546.534" transform="scale(-1)" fill="url(#paint10_diamond_71_41)" opacity="0.8" shape-rendering="crispEdges"/></g></g><rect x="19" y="190" width="125" height="73" rx="25" data-figma-gradient-fill="{&#34;type&#34;:&#34;GRADIENT_DIAMOND&#34;,&#34;stops&#34;:[{&#34;color&#34;:{&#34;r&#34;:0.29882353544235229,&#34;g&#34;:0.99607843160629272,&#34;b&#34;:0.0,&#34;a&#34;:0.0},&#34;position&#34;:0.0},{&#34;color&#34;:{&#34;r&#34;:0.99607843160629272,&#34;g&#34;:0.97947710752487183,&#34;b&#34;:0.0,&#34;a&#34;:1.0},&#34;position&#34;:1.0}],&#34;stopsVar&#34;:[{&#34;color&#34;:{&#34;r&#34;:0.29882353544235229,&#34;g&#34;:0.99607843160629272,&#34;b&#34;:0.0,&#34;a&#34;:0.0},&#34;position&#34;:0.0},{&#34;color&#34;:{&#34;r&#34;:0.99607843160629272,&#34;g&#34;:0.97947710752487183,&#34;b&#34;:0.0,&#34;a&#34;:1.0},&#34;position&#34;:1.0}],&#34;transform&#34;:{&#34;m00&#34;:17.999998092651367,&#34;m01&#34;:247.46861267089844,&#34;m02&#34;:-51.234306335449219,&#34;m10&#34;:-118.99999237060547,&#34;m11&#34;:37.432231903076172,&#34;m12&#34;:267.28387451171875},&#34;opacity&#34;:0.80000001192092896,&#34;blendMode&#34;:&#34;NORMAL&#34;,&#34;visible&#34;:true}"/>
<rect x="19" y="190" width="125" height="73" rx="25" fill="url(#paint11_linear_71_41)" fill-opacity="0.6"/>
</g>
<path id="minus_icon" d="M74 226H92.6667" stroke="#F1F1F1" stroke-width="2" stroke-linecap="round" stroke-linejoin="round"/>
</g>
<text id="Info" fill="white" style="white-space: pre" xml:space="preserve" font-family="Unbounded" font-size="32" letter-spacing="0em"><tspan x="40" y="565">Info</tspan></text>
<g id="Ledenlijst">
<text id="Bekijk meer \/" fill="#848484" style="white-space: pre" xml:space="preserve" font-family="Unbounded" font-size="14" letter-spacing="0em"><tspan x="63" y="1008.75">Bekijk meer \/</tspan></text>
<g id="Lid">
<path id="Rectangle 4_2" d="M40 787.5C40 775.074 50.0736 765 62.5 765C74.9264 765 85 775.074 85 787.5C85 799.926 74.9264 810 62.5 810C50.0736 810 40 799.926 40 787.5Z" fill="#F1F1F1"/>
<text id="Lidnaam" fill="white" style="white-space: pre" xml:space="preserve" font-family="Unbounded" font-size="20" letter-spacing="0em"><tspan x="101" y="794">Riemer</tspan></text>
</g>
<g id="Lid_2">
<path id="Rectangle 4_3" d="M40 848.5C40 836.074 50.0736 826 62.5 826C74.9264 826 85 836.074 85 848.5C85 860.926 74.9264 871 62.5 871C50.0736 871 40 860.926 40 848.5Z" fill="#F1F1F1"/>
<text id="Lidnaam_2" fill="white" style="white-space: pre" xml:space="preserve" font-family="Unbounded" font-size="20" letter-spacing="0em"><tspan x="101" y="855">Syme</tspan></text>
</g>
<g id="Lid_3">
<path id="Rectangle 4_4" d="M40 970.5C40 958.074 50.0736 948 62.5 948C74.9264 948 85 958.074 85 970.5C85 982.926 74.9264 993 62.5 993C50.0736 993 40 982.926 40 970.5Z" fill="#F1F1F1"/>
<text id="Lidnaam_3" fill="white" style="white-space: pre" xml:space="preserve" font-family="Unbounded" font-size="20" letter-spacing="0em"><tspan x="101" y="977">Hilbren</tspan></text>
</g>
<g id="Lid_4">
<path id="Rectangle 4_5" d="M40 909.5C40 897.074 50.0736 887 62.5 887C74.9264 887 85 897.074 85 909.5C85 921.926 74.9264 932 62.5 932C50.0736 932 40 921.926 40 909.5Z" fill="#F1F1F1"/>
<text id="Lidnaam_4" fill="white" style="white-space: pre" xml:space="preserve" font-family="Unbounded" font-size="20" letter-spacing="0em"><tspan x="101" y="916">Ruben</tspan></text>
</g>
<g id="Group 15">
<mask id="mask5_71_41" style="mask-type:alpha" maskUnits="userSpaceOnUse" x="-15" y="670" width="420" height="380">
<path id="Rectangle 3_6" d="M1 687H390V1032H1V687Z" fill="white"/>
</mask>
<g mask="url(#mask5_71_41)">
<g id="Vector_4" filter="url(#filter22_f_71_41)">
<path d="M514.23 680.332C535.224 700.689 420.191 730.042 257.295 745.894C94.3989 761.746 -54.6739 758.095 -75.6687 737.738C-96.6634 717.381 18.3702 688.028 181.266 672.176C344.162 656.324 493.235 659.975 514.23 680.332Z" fill="#00FE96"/>
<path d="M458.049 685.799C473.677 700.952 377.873 723.792 244.066 736.813C110.258 749.834 -10.8826 748.107 -26.5103 732.954C-42.138 717.801 53.6656 694.962 187.473 681.94C321.28 668.919 442.421 670.647 458.049 685.799Z" fill="#FF00F5"/>
<path d="M403.065 689.93C412.379 698.961 344.994 713.573 252.557 722.569C160.12 731.564 77.635 731.536 68.3215 722.506C59.008 713.475 126.393 698.862 218.83 689.867C311.267 680.872 393.752 680.9 403.065 689.93Z" fill="#00BEAE"/>
<path d="M323.476 697.675C328.054 702.114 290.368 709.741 239.301 714.71C188.234 719.68 143.126 720.11 138.548 715.672C133.97 711.233 171.657 703.606 222.723 698.637C273.79 693.667 318.898 693.237 323.476 697.675Z" fill="#00FE96"/>
</g>
</g>
</g>
<text id="LedenAantal" opacity="0.5" fill="white" style="white-space: pre" xml:space="preserve" font-family="Unbounded" font-size="20" letter-spacing="0em"><tspan x="271.077" y="726">13 leden</tspan></text>
<text id="Titel" fill="white" style="white-space: pre" xml:space="preserve" font-family="Unbounded" font-size="20" letter-spacing="0em"><tspan x="41" y="728">Leden</tspan></text>
</g>
</g>
</g>
</g>
<defs>
<filter id="maskBlur" filterUnits="userSpaceOnUse" x="-50%" y="-50%" width="200%" height="200%"><feGaussianBlur stdDeviation="3"/></filter>
<filter id="filter0_f_71_41" x="-138.034" y="-194.985" width="635.101" height="421.89" filterUnits="userSpaceOnUse" color-interpolation-filters="sRGB">
<feFlood flood-opacity="0" result="BackgroundImageFix"/>
<feBlend mode="normal" in="SourceGraphic" in2="BackgroundImageFix" result="shape"/>
<feGaussianBlur stdDeviation="30.0" result="effect1_foregroundBlur_71_41"/>
</filter>
<filter id="filter1_f_71_41" x="310" y="54" width="53" height="53" filterUnits="userSpaceOnUse" color-interpolation-filters="sRGB">
<feFlood flood-opacity="0" result="BackgroundImageFix"/>
<feBlend mode="normal" in="SourceGraphic" in2="BackgroundImageFix" result="shape"/>
<feGaussianBlur stdDeviation="1.8" result="effect1_foregroundBlur_71_41"/>
</filter>
<filter id="filter2_f_71_41" x="-115.988" y="442.972" width="567.54" height="249.16" filterUnits="userSpaceOnUse" color-interpolation-filters="sRGB">
<feFlood flood-opacity="0" result="BackgroundImageFix"/>
<feBlend mode="normal" in="SourceGraphic" in2="BackgroundImageFix" result="shape"/>
<feGaussianBlur stdDeviation="16.23" result="effect1_foregroundBlur_71_41"/>
</filter>
<filter id="filter3_f_71_41" x="-44.9821" y="406.122" width="317.891" height="156.749" filterUnits="userSpaceOnUse" color-interpolation-filters="sRGB">
<feFlood flood-opacity="0" result="BackgroundImageFix"/>
<feBlend mode="normal" in="SourceGraphic" in2="BackgroundImageFix" result="shape"/>
<feGaussianBlur stdDeviation="16.23" result="effect1_foregroundBlur_71_41"/>
</filter>
<filter id="filter4_f_71_41" x="-27.3797" y="412.076" width="280.209" height="145.098" filterUnits="userSpaceOnUse" color-interpolation-filters="sRGB">
<feFlood flood-opacity="0" result="BackgroundImageFix"/>
<feBlend mode="normal" in="SourceGraphic" in2="BackgroundImageFix" result="shape"/>
<feGaussianBlur stdDeviation="16.23" result="effect1_foregroundBlur_71_41"/>
</filter>
<filter id="filter5_f_71_41" x="6.34934" y="417.686" width="226.835" height="131.034" filterUnits="userSpaceOnUse" color-interpolation-filters="sRGB">
<feFlood flood-opacity="0" result="BackgroundImageFix"/>
<feBlend mode="normal" in="SourceGraphic" in2="BackgroundImageFix" result="shape"/>
<feGaussianBlur stdDeviation="16.23" result="effect1_foregroundBlur_71_41"/>
</filter>
<filter id="filter6_f_71_41" x="31.2782" y="423.456" width="173.675" height="119.835" filterUnits="userSpaceOnUse" color-interpolation-filters="sRGB">
<feFlood flood-opacity="0" result="BackgroundImageFix"/>
<feBlend mode="normal" in="SourceGraphic" in2="BackgroundImageFix" result="shape"/>
<feGaussianBlur stdDeviation="16.23" result="effect1_foregroundBlur_71_41"/>
</filter>
<filter id="filter7_f_71_41" x="-70.6087" y="354.855" width="372.068" height="174.29" filterUnits="userSpaceOnUse" color-interpolation-filters="sRGB">
<feFlood flood-opacity="0" result="BackgroundImageFix"/>
<feBlend mode="normal" in="SourceGraphic" in2="BackgroundImageFix" result="shape"/>
<feGaussianBlur stdDeviation="16.23" result="effect1_foregroundBlur_71_41"/>
</filter>
<filter id="filter8_f_71_41" x="-49.1395" y="357.683" width="324.676" height="157.399" filterUnits="userSpaceOnUse" color-interpolation-filters="sRGB">
<feFlood flood-opacity="0" result="BackgroundImageFix"/>
<feBlend mode="normal" in="SourceGraphic" in2="BackgroundImageFix" result="shape"/>
<feGaussianBlur stdDeviation="16.23" result="effect1_foregroundBlur_71_41"/>
</filter>
<filter id="filter9_f_71_41" x="-6.00735" y="372.186" width="257.524" height="137.526" filterUnits="userSpaceOnUse" color-interpolation-filters="sRGB">
<feFlood flood-opacity="0" result="BackgroundImageFix"/>
<feBlend mode="normal" in="SourceGraphic" in2="BackgroundImageFix" result="shape"/>
<feGaussianBlur stdDeviation="16.23" result="effect1_foregroundBlur_71_41"/>
</filter>
<filter id="filter10_f_71_41" x="25.3658" y="379.656" width="190.619" height="122.617" filterUnits="userSpaceOnUse" color-interpolation-filters="sRGB">
<feFlood flood-opacity="0" result="BackgroundImageFix"/>
<feBlend mode="normal" in="SourceGraphic" in2="BackgroundImageFix" result="shape"/>
<feGaussianBlur stdDeviation="16.23" result="effect1_foregroundBlur_71_41"/>
</filter>
<filter id="filter11_f_71_41" x="-85.5966" y="278.7" width="374.649" height="177.315" filterUnits="userSpaceOnUse" color-interpolation-filters="sRGB">
<feFlood flood-opacity="0" result="BackgroundImageFix"/>
<feBlend mode="normal" in="SourceGraphic" in2="BackgroundImageFix" result="shape"/>
<feGaussianBlur stdDeviation="16.23" result="effect1_foregroundBlur_71_41"/>
</filter>
<filter id="filter12_f_71_41" x="-63.178" y="287.266" width="326.672" height="160.506" filterUnits="userSpaceOnUse" color-interpolation-filters="sRGB">
<feFlood flood-opacity="0" result="BackgroundImageFix"/>
<feBlend mode="normal" in="SourceGraphic" in2="BackgroundImageFix" result="shape"/>
<feGaussianBlur stdDeviation="16.23" result="effect1_foregroundBlur_71_41"/>
</filter>
<filter id="filter13_f_71_41" x="-20.3919" y="295.426" width="258.803" height="140.333" filterUnits="userSpaceOnUse" color-interpolation-filters="sRGB">
<feFlood flood-opacity="0" result="BackgroundImageFix"/>
<feBlend mode="normal" in="SourceGraphic" in2="BackgroundImageFix" result="shape"/>
<feGaussianBlur stdDeviation="16.23" result="effect1_foregroundBlur_71_41"/>
</filter>
<filter id="filter14_f_71_41" x="11.2707" y="303.575" width="191.292" height="124.466" filterUnits="userSpaceOnUse" color-interpolation-filters="sRGB">
<feFlood flood-opacity="0" result="BackgroundImageFix"/>
<feBlend mode="normal" in="SourceGraphic" in2="BackgroundImageFix" result="shape"/>
<feGaussianBlur stdDeviation="16.23" result="effect1_foregroundBlur_71_41"/>
</filter>
<filter id="filter15_f_71_41" x="-70.5932" y="219.489" width="359.829" height="166.459" filterUnits="userSpaceOnUse" color-interpolation-filters="sRGB">
<feFlood flood-opacity="0" result="BackgroundImageFix"/>
<feBlend mode="normal" in="SourceGraphic" in2="BackgroundImageFix" result="shape"/>
<feGaussianBlur stdDeviation="16.23" result="effect1_foregroundBlur_71_41"/>
</filter>
<filter id="filter16_f_71_41" x="-49.4704" y="226.633" width="314.611" height="152.477" filterUnits="userSpaceOnUse" color-interpolation-filters="sRGB">
<feFlood flood-opacity="0" result="BackgroundImageFix"/>
<feBlend mode="normal" in="SourceGraphic" in2="BackgroundImageFix" result="shape"/>
<feGaussianBlur stdDeviation="16.23" result="effect1_foregroundBlur_71_41"/>
</filter>
<filter id="filter17_f_71_41" x="-8.99538" y="233.366" width="250.562" height="135.601" filterUnits="userSpaceOnUse" color-interpolation-filters="sRGB">
<feFlood flood-opacity="0" result="BackgroundImageFix"/>
<feBlend mode="normal" in="SourceGraphic" in2="BackgroundImageFix" result="shape"/>
<feGaussianBlur stdDeviation="16.23" result="effect1_foregroundBlur_71_41"/>
</filter>
<filter id="filter18_f_71_41" x="20.9192" y="240.289" width="186.77" height="122.163" filterUnits="userSpaceOnUse" color-interpolation-filters="sRGB">
<feFlood flood-opacity="0" result="BackgroundImageFix"/>
<feBlend mode="normal" in="SourceGraphic" in2="BackgroundImageFix" result="shape"/>
<feGaussianBlur stdDeviation="16.23" result="effect1_foregroundBlur_71_41"/>
</filter>
<filter id="filter19_f_71_41" x="239" y="184" width="137" height="85" filterUnits="userSpaceOnUse" color-interpolation-filters="sRGB">
<feFlood flood-opacity="0" result="BackgroundImageFix"/>
<feBlend mode="normal" in="SourceGraphic" in2="BackgroundImageFix" result="shape"/>
<feGaussianBlur stdDeviation="1.8" result="effect1_foregroundBlur_71_41"/>
</filter>
<clipPath id="paint7_diamond_71_41_clip_path"><rect x="245" y="190" width="125" height="73" rx="25"/></clipPath><filter id="filter20_f_71_41" x="145.1" y="177.1" width="98.8" height="98.8" filterUnits="userSpaceOnUse" color-interpolation-filters="sRGB">
<feFlood flood-opacity="0" result="BackgroundImageFix"/>
<feBlend mode="normal" in="SourceGraphic" in2="BackgroundImageFix" result="shape"/>
<feGaussianBlur stdDeviation="3.87" result="effect1_foregroundBlur_71_41"/>
</filter>
<filter id="filter21_f_71_41" x="13" y="184" width="137" height="85" filterUnits="userSpaceOnUse" color-interpolation-filters="sRGB">
<feFlood flood-opacity="0" result="BackgroundImageFix"/>
<feBlend mode="normal" in="SourceGraphic" in2="BackgroundImageFix" result="shape"/>
<feGaussianBlur stdDeviation="1.8" result="effect1_foregroundBlur_71_41"/>
</filter>
<clipPath id="paint10_diamond_71_41_clip_path"><rect x="19" y="190" width="125" height="73" rx="25"/></clipPath><filter id="filter22_f_71_41" x="-132.241" y="608.216" width="703.043" height="201.637" filterUnits="userSpaceOnUse" color-interpolation-filters="sRGB">
<feFlood flood-opacity="0" result="BackgroundImageFix"/>
<feBlend mode="normal" in="SourceGraphic" in2="BackgroundImageFix" result="shape"/>
<feGaussianBlur stdDeviation="16.23" result="effect1_foregroundBlur_71_41"/>
</filter>
<linearGradient id="paint0_linear_71_41" x1="195" y1="-493.081" x2="195" y2="1530" gradientUnits="userSpaceOnUse">
<stop stop-color="#0E0D1C"/>
<stop offset="1" stop-color="#3D3D3D"/>
</linearGradient>
<radialGradient id="paint1_radial_71_41" cx="0" cy="0" r="1" gradientUnits="userSpaceOnUse" gradientTransform="translate(20.5 20.5) rotate(90) scale(20.5)">
<stop/>
<stop offset="1"/>
</radialGradient>
<linearGradient id="paint2_linear_71_41" x1="195.5" y1="589" x2="195.5" y2="664" gradientUnits="userSpaceOnUse">
<stop stop-color="#606060"/>
<stop offset="1" stop-color="#3D3D3D"/>
</linearGradient>
<linearGradient id="paint3_linear_71_41" x1="195" y1="467" x2="195" y2="517" gradientUnits="userSpaceOnUse">
<stop stop-color="#606060"/>
<stop offset="1" stop-color="#3D3D3D"/>
</linearGradient>
<linearGradient id="paint4_linear_71_41" x1="195" y1="408" x2="195" y2="458" gradientUnits="userSpaceOnUse">
<stop stop-color="#606060"/>
<stop offset="1" stop-color="#3D3D3D"/>
</linearGradient>
<linearGradient id="paint5_linear_71_41" x1="195" y1="349" x2="195" y2="399" gradientUnits="userSpaceOnUse">
<stop stop-color="#606060"/>
<stop offset="1" stop-color="#3D3D3D"/>
</linearGradient>
<linearGradient id="paint6_linear_71_41" x1="195" y1="290" x2="195" y2="340" gradientUnits="userSpaceOnUse">
<stop stop-color="#606060"/>
<stop offset="1" stop-color="#3D3D3D"/>
</linearGradient>
<linearGradient id="paint7_diamond_71_41" x1="0" y1="0" x2="500" y2="500" gradientUnits="userSpaceOnUse">
<stop stop-color="#4CFE00" stop-opacity="0"/>
<stop offset="1" stop-color="#00FE94"/>
</linearGradient>
<linearGradient id="paint8_linear_71_41" x1="307.5" y1="190" x2="307.5" y2="263" gradientUnits="userSpaceOnUse">
<stop stop-color="#00FF97"/>
<stop offset="1" stop-color="#007399"/>
</linearGradient>
<linearGradient id="paint9_linear_71_41" x1="194.5" y1="190" x2="194.5" y2="263" gradientUnits="userSpaceOnUse">
<stop stop-color="#00FE96"/>
<stop offset="1" stop-color="#2F00FF"/>
</linearGradient>
<linearGradient id="paint10_diamond_71_41" x1="0" y1="0" x2="500" y2="500" gradientUnits="userSpaceOnUse">
<stop stop-color="#4CFE00" stop-opacity="0"/>
<stop offset="1" stop-color="#FEFA00"/>
</linearGradient>
<linearGradient id="paint11_linear_71_41" x1="81.5" y1="190" x2="81.5" y2="263" gradientUnits="userSpaceOnUse">
<stop stop-color="#FF0085"/>
<stop offset="1" stop-color="#FF00F5"/>
</linearGradient>
<clipPath id="clip0_71_41">
<rect width="390" height="1530" fill="white"/>
</clipPath>
<clipPath id="clip1_71_41">
<rect width="390" height="1530" fill="white"/>
</clipPath>
</defs>
</svg>
