<?xml version="1.0" encoding="UTF-8" standalone="no"?>
<!-- Created with Inkscape (http://www.inkscape.org/) -->

<svg
   width="210mm"
   height="297mm"
   viewBox="0 0 210 297"
   version="1.1"
   id="svg1"
   inkscape:version="1.4.3 (0d15f75, 2025-12-25)"
   sodipodi:docname="Logo's.svg"
   xmlns:inkscape="http://www.inkscape.org/namespaces/inkscape"
   xmlns:sodipodi="http://sodipodi.sourceforge.net/DTD/sodipodi-0.dtd"
   xmlns:xlink="http://www.w3.org/1999/xlink"
   xmlns="http://www.w3.org/2000/svg"
   xmlns:svg="http://www.w3.org/2000/svg">
  <sodipodi:namedview
     id="namedview1"
     pagecolor="#ffffff"
     bordercolor="#000000"
     borderopacity="0"
     inkscape:showpageshadow="2"
     inkscape:pageopacity="0.0"
     inkscape:pagecheckerboard="true"
     inkscape:deskcolor="#d1d1d1"
     inkscape:document-units="mm"
     inkscape:export-bgcolor="#ffffff00"
     showgrid="false"
     showguides="true"
     inkscape:zoom="2.8284271"
     inkscape:cx="157.33126"
     inkscape:cy="111.19254"
     inkscape:window-width="1920"
     inkscape:window-height="1111"
     inkscape:window-x="-9"
     inkscape:window-y="-9"
     inkscape:window-maximized="1"
     inkscape:current-layer="layer3">
    <inkscape:grid
       id="grid1"
       units="mm"
       originx="0"
       originy="0"
       spacingx="0.99999998"
       spacingy="1"
       empcolor="#3c3c3c"
       empopacity="0.30196078"
       color="#737373"
       opacity="0.14901961"
       empspacing="4"
       enabled="true"
       visible="false" />
  </sodipodi:namedview>
  <defs
     id="defs1">
    <linearGradient
       id="linearGradient108"
       inkscape:collect="always">
      <stop
         style="stop-color:#00beae;stop-opacity:1;"
         offset="0"
         id="stop107" />
      <stop
         style="stop-color:#00ff95;stop-opacity:1;"
         offset="1"
         id="stop108" />
    </linearGradient>
    <linearGradient
       id="linearGradient106"
       inkscape:collect="always">
      <stop
         style="stop-color:#ff00f5;stop-opacity:1;"
         offset="0"
         id="stop105" />
      <stop
         style="stop-color:#00beae;stop-opacity:1;"
         offset="1"
         id="stop106" />
    </linearGradient>
    <linearGradient
       id="linearGradient104"
       inkscape:collect="always">
      <stop
         style="stop-color:#ff0083;stop-opacity:1;"
         offset="0"
         id="stop103" />
      <stop
         style="stop-color:#ff00f5;stop-opacity:1;"
         offset="1"
         id="stop104" />
    </linearGradient>
    <inkscape:path-effect
       effect="fillet_chamfer"
       id="path-effect91"
       is_visible="true"
       lpeversion="1"
       nodesatellites_param="F,0,0,1,0,12.000003,0,1 @ F,0,0,1,0,11.999995,0,1 @ F,0,0,1,0,11.999996,0,1 @ F,0,0,1,0,12.000006,0,1"
       radius="0"
       unit="px"
       method="auto"
       mode="F"
       chamfer_steps="1"
       flexible="false"
       use_knot_distance="true"
       apply_no_radius="true"
       apply_with_radius="true"
       only_selected="false"
       hide_knots="false" />
    <inkscape:path-effect
       effect="fillet_chamfer"
       id="path-effect2"
       is_visible="true"
       lpeversion="1"
       nodesatellites_param="F,0,1,1,0,3.99999,0,1 @ F,0,0,1,0,3.99999,0,1 @ F,0,1,1,0,3.99999,0,1 @ F,0,1,1,0,3.99999,0,1"
       radius="0"
       unit="px"
       method="auto"
       mode="F"
       chamfer_steps="1"
       flexible="false"
       use_knot_distance="true"
       apply_no_radius="true"
       apply_with_radius="true"
       only_selected="false"
       hide_knots="false" />
    <inkscape:path-effect
       effect="fillet_chamfer"
       id="path-effect2-4"
       is_visible="true"
       lpeversion="1"
       nodesatellites_param="F,0,1,1,0,3.99999,0,1 @ F,0,0,1,0,3.99999,0,1 @ F,0,1,1,0,3.99999,0,1 @ F,0,1,1,0,3.99999,0,1"
       radius="0"
       unit="px"
       method="auto"
       mode="F"
       chamfer_steps="1"
       flexible="false"
       use_knot_distance="true"
       apply_no_radius="true"
       apply_with_radius="true"
       only_selected="false"
       hide_knots="false" />
    <inkscape:path-effect
       effect="fillet_chamfer"
       id="path-effect2-5"
       is_visible="true"
       lpeversion="1"
       nodesatellites_param="F,0,1,1,0,3.99999,0,1 @ F,0,0,1,0,3.99999,0,1 @ F,0,1,1,0,3.99999,0,1 @ F,0,1,1,0,3.99999,0,1"
       radius="0"
       unit="px"
       method="auto"
       mode="F"
       chamfer_steps="1"
       flexible="false"
       use_knot_distance="true"
       apply_no_radius="true"
       apply_with_radius="true"
       only_selected="false"
       hide_knots="false" />
    <inkscape:path-effect
       effect="fillet_chamfer"
       id="path-effect2-2"
       is_visible="true"
       lpeversion="1"
       nodesatellites_param="F,0,1,1,0,3.99999,0,1 @ F,0,0,1,0,3.99999,0,1 @ F,0,1,1,0,3.99999,0,1 @ F,0,1,1,0,3.99999,0,1"
       radius="0"
       unit="px"
       method="auto"
       mode="F"
       chamfer_steps="1"
       flexible="false"
       use_knot_distance="true"
       apply_no_radius="true"
       apply_with_radius="true"
       only_selected="false"
       hide_knots="false" />
    <inkscape:path-effect
       effect="fillet_chamfer"
       id="path-effect2-22"
       is_visible="true"
       lpeversion="1"
       nodesatellites_param="F,0,1,1,0,3.99999,0,1 @ F,0,0,1,0,3.99999,0,1 @ F,0,1,1,0,3.99999,0,1 @ F,0,1,1,0,3.99999,0,1"
       radius="0"
       unit="px"
       method="auto"
       mode="F"
       chamfer_steps="1"
       flexible="false"
       use_knot_distance="true"
       apply_no_radius="true"
       apply_with_radius="true"
       only_selected="false"
       hide_knots="false" />
    <inkscape:path-effect
       effect="fillet_chamfer"
       id="path-effect2-6"
       is_visible="true"
       lpeversion="1"
       nodesatellites_param="F,0,1,1,0,3.99999,0,1 @ F,0,0,1,0,3.99999,0,1 @ F,0,1,1,0,3.99999,0,1 @ F,0,1,1,0,3.99999,0,1"
       radius="0"
       unit="px"
       method="auto"
       mode="F"
       chamfer_steps="1"
       flexible="false"
       use_knot_distance="true"
       apply_no_radius="true"
       apply_with_radius="true"
       only_selected="false"
       hide_knots="false" />
    <clipPath
       clipPathUnits="userSpaceOnUse"
       id="clipPath4">
      <g
         inkscape:label="Clip"
         id="use4" />
    </clipPath>
    <inkscape:path-effect
       effect="fillet_chamfer"
       id="path-effect2-0"
       is_visible="true"
       lpeversion="1"
       nodesatellites_param="F,0,0,1,0,3.99999,0,1 @ F,0,0,1,0,3.99999,0,1 @ F,0,1,1,0,3.000347,0,1 @ F,0,0,1,0,3.99999,0,1"
       radius="0"
       unit="px"
       method="auto"
       mode="F"
       chamfer_steps="1"
       flexible="false"
       use_knot_distance="true"
       apply_no_radius="true"
       apply_with_radius="true"
       only_selected="false"
       hide_knots="false" />
    <inkscape:path-effect
       effect="fillet_chamfer"
       id="path-effect2-4-2"
       is_visible="true"
       lpeversion="1"
       nodesatellites_param="F,0,0,1,0,3.99999,0,1 @ F,0,0,1,0,3.99999,0,1 @ F,0,0,1,0,3.99999,0,1 @ F,0,1,1,0,3.0408754,0,1"
       radius="0"
       unit="px"
       method="auto"
       mode="F"
       chamfer_steps="1"
       flexible="false"
       use_knot_distance="true"
       apply_no_radius="true"
       apply_with_radius="true"
       only_selected="false"
       hide_knots="false" />
    <inkscape:path-effect
       effect="fillet_chamfer"
       id="path-effect2-22-0"
       is_visible="true"
       lpeversion="1"
       nodesatellites_param="F,0,1,1,0,3.99999,0,1 @ F,0,0,1,0,3.99999,0,1 @ F,0,1,1,0,3.99999,0,1 @ F,0,1,1,0,3.99999,0,1"
       radius="0"
       unit="px"
       method="auto"
       mode="F"
       chamfer_steps="1"
       flexible="false"
       use_knot_distance="true"
       apply_no_radius="true"
       apply_with_radius="true"
       only_selected="false"
       hide_knots="false" />
    <inkscape:path-effect
       effect="fillet_chamfer"
       id="path-effect91-8"
       is_visible="true"
       lpeversion="1"
       nodesatellites_param="F,0,0,1,0,12.000003,0,1 @ F,0,0,1,0,11.999995,0,1 @ F,0,0,1,0,11.999996,0,1 @ F,0,0,1,0,12.000006,0,1"
       radius="0"
       unit="px"
       method="auto"
       mode="F"
       chamfer_steps="1"
       flexible="false"
       use_knot_distance="true"
       apply_no_radius="true"
       apply_with_radius="true"
       only_selected="false"
       hide_knots="false" />
    <inkscape:path-effect
       effect="fillet_chamfer"
       id="path-effect91-8-0"
       is_visible="true"
       lpeversion="1"
       nodesatellites_param="F,0,0,1,0,12.000003,0,1 @ F,0,0,1,0,11.999995,0,1 @ F,0,0,1,0,11.999996,0,1 @ F,0,0,1,0,12.000006,0,1"
       radius="0"
       unit="px"
       method="auto"
       mode="F"
       chamfer_steps="1"
       flexible="false"
       use_knot_distance="true"
       apply_no_radius="true"
       apply_with_radius="true"
       only_selected="false"
       hide_knots="false" />
    <linearGradient
       inkscape:collect="always"
       xlink:href="#linearGradient106"
       id="linearGradient86"
       x1="65.675476"
       y1="65.106087"
       x2="65.675476"
       y2="105.10609"
       gradientUnits="userSpaceOnUse"
       gradientTransform="translate(98.151226,108.73551)" />
    <linearGradient
       inkscape:collect="always"
       xlink:href="#linearGradient104"
       id="linearGradient84"
       x1="49.675232"
       y1="109.10599"
       x2="49.675476"
       y2="65.106087"
       gradientUnits="userSpaceOnUse"
       gradientTransform="translate(98.151226,108.73551)" />
    <linearGradient
       inkscape:collect="always"
       xlink:href="#linearGradient108"
       id="linearGradient91"
       x1="81.675476"
       y1="105.10609"
       x2="81.675117"
       y2="61.106346"
       gradientUnits="userSpaceOnUse"
       gradientTransform="translate(98.151226,108.73551)" />
    <inkscape:path-effect
       effect="fillet_chamfer"
       id="path-effect2-22-0-6"
       is_visible="true"
       lpeversion="1"
       nodesatellites_param="F,0,1,1,0,3.99999,0,1 @ F,0,0,1,0,3.99999,0,1 @ F,0,1,1,0,3.99999,0,1 @ F,0,1,1,0,3.99999,0,1"
       radius="0"
       unit="px"
       method="auto"
       mode="F"
       chamfer_steps="1"
       flexible="false"
       use_knot_distance="true"
       apply_no_radius="true"
       apply_with_radius="true"
       only_selected="false"
       hide_knots="false" />
    <inkscape:path-effect
       effect="fillet_chamfer"
       id="path-effect91-8-0-6"
       is_visible="true"
       lpeversion="1"
       nodesatellites_param="F,0,0,1,0,12.000003,0,1 @ F,0,0,1,0,11.999995,0,1 @ F,0,0,1,0,11.999996,0,1 @ F,0,0,1,0,12.000006,0,1"
       radius="0"
       unit="px"
       method="auto"
       mode="F"
       chamfer_steps="1"
       flexible="false"
       use_knot_distance="true"
       apply_no_radius="true"
       apply_with_radius="true"
       only_selected="false"
       hide_knots="false" />
    <inkscape:path-effect
       effect="fillet_chamfer"
       id="path-effect2-22-0-6-9"
       is_visible="true"
       lpeversion="1"
       nodesatellites_param="F,0,1,1,0,3.99999,0,1 @ F,0,0,1,0,3.99999,0,1 @ F,0,1,1,0,3.99999,0,1 @ F,0,1,1,0,3.99999,0,1"
       radius="0"
       unit="px"
       method="auto"
       mode="F"
       chamfer_steps="1"
       flexible="false"
       use_knot_distance="true"
       apply_no_radius="true"
       apply_with_radius="true"
       only_selected="false"
       hide_knots="false" />
    <inkscape:path-effect
       effect="fillet_chamfer"
       id="path-effect91-8-0-4"
       is_visible="true"
       lpeversion="1"
       nodesatellites_param="F,0,0,1,0,12.000003,0,1 @ F,0,0,1,0,11.999995,0,1 @ F,0,0,1,0,11.999996,0,1 @ F,0,0,1,0,12.000006,0,1"
       radius="0"
       unit="px"
       method="auto"
       mode="F"
       chamfer_steps="1"
       flexible="false"
       use_knot_distance="true"
       apply_no_radius="true"
       apply_with_radius="true"
       only_selected="false"
       hide_knots="false" />
    <inkscape:path-effect
       effect="fillet_chamfer"
       id="path-effect91-8-0-4-7"
       is_visible="true"
       lpeversion="1"
       nodesatellites_param="F,0,0,1,0,12.000003,0,1 @ F,0,0,1,0,11.999995,0,1 @ F,0,0,1,0,11.999996,0,1 @ F,0,0,1,0,12.000006,0,1"
       radius="0"
       unit="px"
       method="auto"
       mode="F"
       chamfer_steps="1"
       flexible="false"
       use_knot_distance="true"
       apply_no_radius="true"
       apply_with_radius="true"
       only_selected="false"
       hide_knots="false" />
    <inkscape:path-effect
       effect="fillet_chamfer"
       id="path-effect91-8-0-6-2"
       is_visible="true"
       lpeversion="1"
       nodesatellites_param="F,0,0,1,0,12.000003,0,1 @ F,0,0,1,0,11.999995,0,1 @ F,0,0,1,0,11.999996,0,1 @ F,0,0,1,0,12.000006,0,1"
       radius="0"
       unit="px"
       method="auto"
       mode="F"
       chamfer_steps="1"
       flexible="false"
       use_knot_distance="true"
       apply_no_radius="true"
       apply_with_radius="true"
       only_selected="false"
       hide_knots="false" />
    <inkscape:path-effect
       effect="fillet_chamfer"
       id="path-effect2-22-0-6-9-2"
       is_visible="true"
       lpeversion="1"
       nodesatellites_param="F,0,1,1,0,3.99999,0,1 @ F,0,0,1,0,3.99999,0,1 @ F,0,1,1,0,3.99999,0,1 @ F,0,1,1,0,3.99999,0,1"
       radius="0"
       unit="px"
       method="auto"
       mode="F"
       chamfer_steps="1"
       flexible="false"
       use_knot_distance="true"
       apply_no_radius="true"
       apply_with_radius="true"
       only_selected="false"
       hide_knots="false" />
    <linearGradient
       inkscape:collect="always"
       xlink:href="#linearGradient94"
       id="linearGradient93"
       x1="64.05616"
       y1="104.0004"
       x2="42.056328"
       y2="95.726334"
       gradientUnits="userSpaceOnUse" />
    <linearGradient
       id="linearGradient94"
       inkscape:collect="always">
      <stop
         style="stop-color:#a6a6a6;stop-opacity:1;"
         offset="0"
         id="stop94" />
      <stop
         style="stop-color:#ffffff;stop-opacity:1;"
         offset="1"
         id="stop95" />
    </linearGradient>
    <inkscape:path-effect
       effect="fillet_chamfer"
       id="path-effect2-22-0-6-99"
       is_visible="true"
       lpeversion="1"
       nodesatellites_param="F,0,0,1,0,4.9999993,0,1 @ F,0,0,1,0,4.9999998,0,1 @ F,0,0,1,0,5.0000005,0,1 @ F,0,0,1,0,4.9999997,0,1"
       radius="0"
       unit="px"
       method="auto"
       mode="F"
       chamfer_steps="1"
       flexible="false"
       use_knot_distance="true"
       apply_no_radius="true"
       apply_with_radius="true"
       only_selected="false"
       hide_knots="false" />
    <inkscape:path-effect
       effect="fillet_chamfer"
       id="path-effect2-22-0-6-99-0"
       is_visible="true"
       lpeversion="1"
       nodesatellites_param="F,0,0,1,0,4.9999993,0,1 @ F,0,0,1,0,4.9999998,0,1 @ F,0,0,1,0,5.0000005,0,1 @ F,0,0,1,0,4.9999997,0,1"
       radius="0"
       unit="px"
       method="auto"
       mode="F"
       chamfer_steps="1"
       flexible="false"
       use_knot_distance="true"
       apply_no_radius="true"
       apply_with_radius="true"
       only_selected="false"
       hide_knots="false" />
    <linearGradient
       inkscape:collect="always"
       xlink:href="#linearGradient104"
       id="linearGradient109"
       gradientUnits="userSpaceOnUse"
       gradientTransform="translate(-11.40567,86.002533)"
       x1="49.675232"
       y1="109.10599"
       x2="49.675476"
       y2="65.106087" />
    <linearGradient
       inkscape:collect="always"
       xlink:href="#linearGradient108"
       id="linearGradient110"
       gradientUnits="userSpaceOnUse"
       gradientTransform="translate(-11.40567,86.002533)"
       x1="81.675476"
       y1="105.10609"
       x2="81.675117"
       y2="61.106346" />
    <linearGradient
       inkscape:collect="always"
       xlink:href="#linearGradient106"
       id="linearGradient111"
       gradientUnits="userSpaceOnUse"
       gradientTransform="translate(-11.40567,86.002533)"
       x1="65.675476"
       y1="65.106087"
       x2="65.675476"
       y2="105.10609" />
    <linearGradient
       inkscape:collect="always"
       xlink:href="#linearGradient94"
       id="linearGradient93-1"
       x1="64.05616"
       y1="104.0004"
       x2="42.056328"
       y2="95.726334"
       gradientUnits="userSpaceOnUse" />
    <inkscape:path-effect
       effect="fillet_chamfer"
       id="path-effect2-22-0-6-99-0-9"
       is_visible="true"
       lpeversion="1"
       nodesatellites_param="F,0,0,1,0,4.9999993,0,1 @ F,0,0,1,0,4.9999998,0,1 @ F,0,0,1,0,5.0000005,0,1 @ F,0,0,1,0,4.9999997,0,1"
       radius="0"
       unit="px"
       method="auto"
       mode="F"
       chamfer_steps="1"
       flexible="false"
       use_knot_distance="true"
       apply_no_radius="true"
       apply_with_radius="true"
       only_selected="false"
       hide_knots="false" />
    <inkscape:path-effect
       effect="fillet_chamfer"
       id="path-effect2-22-0-6-99-7"
       is_visible="true"
       lpeversion="1"
       nodesatellites_param="F,0,0,1,0,4.9999993,0,1 @ F,0,0,1,0,4.9999998,0,1 @ F,0,0,1,0,5.0000005,0,1 @ F,0,0,1,0,4.9999997,0,1"
       radius="0"
       unit="px"
       method="auto"
       mode="F"
       chamfer_steps="1"
       flexible="false"
       use_knot_distance="true"
       apply_no_radius="true"
       apply_with_radius="true"
       only_selected="false"
       hide_knots="false" />
    <linearGradient
       inkscape:collect="always"
       xlink:href="#linearGradient104"
       id="linearGradient1"
       gradientUnits="userSpaceOnUse"
       gradientTransform="translate(-9.2890074,-2.3682967)"
       x1="49.675232"
       y1="109.10599"
       x2="49.675476"
       y2="65.106087" />
    <linearGradient
       inkscape:collect="always"
       xlink:href="#linearGradient108"
       id="linearGradient2"
       gradientUnits="userSpaceOnUse"
       gradientTransform="translate(-9.2890074,-2.3682967)"
       x1="81.675476"
       y1="105.10609"
       x2="81.675117"
       y2="61.106346" />
    <linearGradient
       inkscape:collect="always"
       xlink:href="#linearGradient106"
       id="linearGradient3"
       gradientUnits="userSpaceOnUse"
       gradientTransform="translate(-9.2890074,-2.3682967)"
       x1="65.675476"
       y1="65.106087"
       x2="65.675476"
       y2="105.10609" />
    <linearGradient
       inkscape:collect="always"
       xlink:href="#linearGradient94"
       id="linearGradient4"
       gradientUnits="userSpaceOnUse"
       x1="64.05616"
       y1="104.0004"
       x2="42.056328"
       y2="95.726334" />
  </defs>
  <g
     inkscape:label="Laag 1"
     inkscape:groupmode="layer"
     id="layer1">
    <path
       d="m 159.83886,75.905441 8.00003,-2.023133 V 65.1061 a 3.99999,3.99999 0 0 0 -3.99976,-3.999756 h -5.2e-4 a 3.9999899,3.9999899 0 0 0 -3.99975,3.999756 z"
       style="font-variation-settings:'wght' 400;fill:#4d4d4d;stroke-width:0.264583"
       id="path80" />
    <path
       d="m 151.83831,86.180782 -7.99951,2.023133 v 16.901805 a 3.99999,3.99999 0 0 0 3.99976,4.00028 3.99999,3.99999 0 0 0 0.0109,0 h 14.97014 1.00511 0.0145 a 3.99999,3.99999 0 0 0 3.99976,-3.99976 V 82.132968 l -8.00003,2.023649 v 18.002513 c -2.3e-4,-0.0179 -5.2e-4,-0.0356 -5.2e-4,-0.0532 1.9e-4,1.65692 -1.3429,2.99972 -2.99982,2.99981 h -1.99987 c -1.6569,1.8e-4 -3.00016,-1.34249 -3.00034,-2.9993 z"
       style="font-variation-settings:'wght' 400;fill:#4d4d4d;stroke-width:0.264583"
       id="path78" />
    <path
       d="m 135.83877,90.228081 -8.00003,2.023649 v 12.85399 a 3.99999,3.99999 0 0 0 3.99976,4.00028 3.9999899,3.9999899 0 0 0 4.00027,-4.00028 z"
       style="font-variation-settings:'wght' 400;fill:#4d4d4d;stroke-width:0.264583"
       id="path76" />
    <path
       d="m 131.8385,61.105827 a 3.99999,3.99999 0 0 0 -3.99976,4.000273 v 18.893937 l 8.00003,-2.023649 V 68.102816 c 10e-4,-1.655477 1.34395,-2.99662 2.99982,-2.996716 h 1.99988 c 1.65689,-1.78e-4 3.00015,1.342493 3.00033,2.9993 v 11.847339 l 7.99951,-2.023132 V 65.116435 a 4.010763,4.010763 0 0 0 -4.01061,-4.010608 h -15.95303 a 3.9860131,3.9860131 0 0 0 -0.0222,0 z"
       style="font-variation-settings:'wght' 400;fill:#4d4d4d;stroke-width:0.264583"
       id="path74" />
    <path
       d="m 151.83831,77.929607 v 8.251175 l 8.00055,-2.024165 v -8.251176 z"
       style="font-variation-settings:'wght' 400;fill:#4d4d4d;stroke-width:0.264583"
       id="path81" />
    <path
       d="m 167.83889,73.882308 v 8.25066 l 9.56065,-2.418457 a 3.9442222,3.9442222 0 0 0 2.84272,-4.844149 4.0565463,4.0565463 0 0 0 -4.91288,-2.883028 z"
       style="font-variation-settings:'wght' 400;fill:#4d4d4d;stroke-width:0.264583"
       id="path79" />
    <path
       d="m 143.8388,88.203915 v -8.251176 l -8.00003,2.023649 v 8.251693 z"
       style="font-variation-settings:'wght' 400;fill:#4d4d4d;stroke-width:0.264583"
       id="path77" />
    <path
       d="m 127.83874,92.25173 v -8.251693 l -10.6841,2.702677 a 3.9442222,3.9442222 0 0 0 -2.8422,4.844666 4.0565463,4.0565463 0 0 0 4.91288,2.883028 z"
       style="font-variation-settings:'wght' 400;fill:#4d4d4d;stroke-width:0.264583"
       id="path75" />
  </g>
  <g
     inkscape:groupmode="layer"
     id="layer4"
     inkscape:label="Laag 3" />
  <g
     inkscape:groupmode="layer"
     id="layer3"
     inkscape:label="Laag 2">
    <path
       style="font-variation-settings:'wght' 400;fill:#333333;stroke-width:0.258652"
       id="rect91-4"
       width="80"
       height="80"
       x="100"
       y="148"
       inkscape:path-effect="#path-effect91-8-0"
       sodipodi:type="rect"
       d="m 112,148 h 56 a 11.999995,11.999995 45 0 1 12,11.99999 V 216 a 11.999996,11.999996 135 0 1 -12,12 H 112.00001 A 12.000006,12.000006 45 0 1 100,215.99999 V 160 a 12.000003,12.000003 135 0 1 12,-12 z"
       transform="translate(23.826692,5.1937495)"
       inkscape:export-filename="logonaam_dark.svg"
       inkscape:export-xdpi="96"
       inkscape:export-ydpi="96" />
    <path
       id="path2"
       style="font-variation-settings:'wght' 400;fill:url(#linearGradient84);fill-opacity:1;stroke-width:0.264583"
       d="m 155.83888,169.84132 h -7.97626 c -0.007,-2e-5 -0.0148,-2e-5 -0.0222,0 h -0.014 v 0 c -2.20915,1.3e-4 -3.99991,1.79112 -3.99976,4.00028 v 39.99962 c -1.6e-4,2.20916 1.79061,4.00015 3.99976,4.00028 2.20936,1.6e-4 4.00043,-1.79092 4.00027,-4.00028 v -37.00291 c 0.002,-1.65547 1.34395,-2.99662 2.99982,-2.99671 h 0.99994"
       sodipodi:nodetypes="ccccsccccccc" />
    <path
       id="path82"
       style="font-variation-settings:'wght' 400;display:inline;fill:url(#linearGradient91);fill-opacity:1;stroke-width:0.264583"
       d="m 171.66261,213.8416 0.1637,3.99991 h 6.98097 1.0051 0.0145 c 2.20895,-1.3e-4 3.99963,-1.7908 3.99976,-3.99975 v -40.00014 c -1.3e-4,-2.20895 -1.79081,-3.99963 -3.99976,-3.99976 h -5.1e-4 c -2.20895,1.3e-4 -3.99963,1.79081 -3.99976,3.99976 v 37.05303 c -2.2e-4,-0.0179 -5.2e-4,-0.0356 -5.2e-4,-0.0532 1.9e-4,1.65692 -1.3429,2.99973 -2.99981,2.99982 z"
       sodipodi:nodetypes="ccccsccssccccc" />
    <path
       id="path83"
       style="font-variation-settings:'wght' 400;display:inline;fill:url(#linearGradient86);fill-opacity:1;stroke-width:0.264583"
       d="m 155.83865,169.84134 -1.01214,4.00026 1.99968,2e-5 c 1.65689,-1.8e-4 3.00016,1.34249 3.00034,2.9993 v 37.00032 c -1.6e-4,2.20915 1.7906,4.00014 3.99975,4.00027 h 0.0109 7.98918 v -4.00027 h -0.99994 c -1.65689,1.8e-4 -3.00016,-1.34249 -3.00033,-2.9993 v -36.98999 c -9e-5,-2.21496 -1.79565,-4.01052 -4.01061,-4.01061 z"
       sodipodi:nodetypes="cccccscccccccc" />
    <path
       style="font-variation-settings:'wght' 400;fill:url(#linearGradient93);fill-opacity:1;stroke-width:0.264583"
       d="m 58.802839,109.05128 0,0 a 5.0000027,5.0000027 136.10337 0 0 5.095356,-4.90279 l 1.116881,-57.989249 a 5.0000001,5.0000001 46.103386 0 0 -4.90279,-5.095356 l 0,0 a 5,5 136.10339 0 0 -5.095356,4.902791 l -1.11688,57.989254 a 4.9999965,4.9999965 46.103372 0 0 4.902789,5.09535 z"
       id="path2-8"
       transform="rotate(73.896612,32.659501,204.02541)"
       sodipodi:nodetypes="ccccc"
       inkscape:original-d="m 53.803767,108.955 9.998145,0.19256 1.309447,-67.987392 -9.998146,-0.192565 z"
       inkscape:path-effect="#path-effect2-22-0-6-99" />
    <path
       id="path2-5"
       style="font-variation-settings:'wght' 400;fill:url(#linearGradient1);fill-opacity:1;stroke-width:0.264583"
       d="m 48.398647,58.737513 h -7.97626 c -0.007,-2e-5 -0.0148,-2e-5 -0.0222,0 h -0.014 v 0 c -2.20915,1.3e-4 -3.99991,1.79112 -3.99976,4.00028 v 39.999617 c -1.6e-4,2.20916 1.79061,4.00015 3.99976,4.00028 2.20936,1.6e-4 4.00043,-1.79092 4.00027,-4.00028 V 65.734503 c 0.002,-1.65547 1.34395,-2.99662 2.99982,-2.99671 h 0.99994"
       sodipodi:nodetypes="ccccsccccccc" />
    <path
       id="path37"
       style="font-variation-settings:'wght' 400;fill:#4d4d4d;stroke-width:0.264583;fill-opacity:1"
       d="M 21.338749 6.3711873 C 19.129599 6.3713173 17.338843 8.1623 17.338993 10.37146 L 17.338993 30.758846 L 8.2062174 33.206242 A 4.9999965 4.9999965 0 0 0 4.6710327 39.329899 A 5.0000027 5.0000027 0 0 0 10.79469 42.865084 L 17.338993 41.111702 L 17.338993 50.371086 C 17.338833 52.580246 19.129599 54.371228 21.338749 54.371358 C 23.548109 54.371518 25.339182 52.580446 25.339022 50.371086 L 25.339022 38.968164 L 33.33905 36.824109 L 33.33905 50.371086 C 33.33889 52.580236 35.129656 54.371228 37.338806 54.371358 L 37.349658 54.371358 L 45.338835 54.371358 L 52.319804 54.371358 L 53.32491 54.371358 L 53.33938 54.371358 C 55.54833 54.371228 57.339006 52.580552 57.339136 50.371602 L 57.339136 30.393494 L 66.818144 27.853597 A 5.0000001 5.0000001 0 0 0 70.353845 21.72994 A 5 5 0 0 0 65.524683 18.023706 A 5 5 0 0 0 64.230188 18.194238 L 57.339136 20.040637 L 57.339136 10.37146 C 57.339006 8.16251 55.54833 6.3718341 53.33938 6.3717041 L 53.338863 6.3717041 C 51.129913 6.3718341 49.339237 8.16251 49.339107 10.37146 L 49.339107 22.184176 L 41.338562 24.328231 L 41.338562 10.381795 C 41.338472 8.1668354 39.542914 6.3712773 37.327954 6.3711873 L 29.35118 6.3711873 L 21.374923 6.3711873 C 21.367923 6.3711673 21.360102 6.3711673 21.352702 6.3711873 L 21.338749 6.3711873 z M 28.338839 10.37146 L 30.338717 10.37146 C 31.995607 10.37128 33.33887 11.71395 33.33905 13.37076 L 33.33905 26.471769 L 25.339022 28.615308 L 25.339022 13.368176 C 25.341022 11.712706 26.682969 10.37155 28.338839 10.37146 z M 49.339107 32.537032 L 49.339107 47.424495 C 49.338887 47.406595 49.33859 47.388869 49.33859 47.371269 C 49.33878 49.028188 47.995684 50.370996 46.338774 50.371086 L 45.338835 50.371602 L 45.338835 50.371086 L 44.338896 50.371086 C 42.682006 50.371266 41.338732 49.028597 41.338562 47.371785 L 41.338562 34.681087 L 49.339107 32.537032 z "
       inkscape:export-filename="logo_monochrome.png"
       inkscape:export-xdpi="96"
       inkscape:export-ydpi="96" />
    <path
       d="m 91.362775,38.602843 -8.000028,2.143539 v 9.259384 c -1.6e-4,2.20916 1.790605,4.000141 3.999755,4.00027 2.20936,1.6e-4 4.000433,-1.79091 4.000273,-4.00027 z"
       style="font-variation-settings:'wght' 400;fill:#4d4d4d;stroke-width:0.264583;fill-opacity:1"
       id="path15"
       inkscape:export-filename="logo_monochrome.png"
       inkscape:export-xdpi="96"
       inkscape:export-ydpi="96" />
    <path
       d="m 87.362502,6.0058664 c -2.20915,1.3e-4 -3.999905,1.791113 -3.999755,4.0002726 v 20.387387 l 8.000028,-2.143539 V 13.002856 c 0.002,-1.65547 1.343947,-2.996627 2.999817,-2.996717 l 1.012341,-4.0002726 h -7.976257 c -0.007,-2e-5 -0.01482,-2e-5 -0.02222,0 z"
       style="font-variation-settings:'wght' 400;fill:#4d4d4d;stroke-width:0.264583;fill-opacity:1"
       id="path14" />
    <path
       id="path82-2"
       style="font-variation-settings:'wght' 400;display:inline;fill:url(#linearGradient2);fill-opacity:1;stroke-width:0.264583"
       d="m 64.222377,102.73779 0.1637,3.99991 h 6.98097 1.0051 0.0145 c 2.20895,-1.3e-4 3.99963,-1.7908 3.99976,-3.99975 V 62.737813 c -1.3e-4,-2.20895 -1.79081,-3.99963 -3.99976,-3.99976 h -5.1e-4 c -2.20895,1.3e-4 -3.99963,1.79081 -3.99976,3.99976 v 37.05303 c -2.2e-4,-0.0179 -5.2e-4,-0.0356 -5.2e-4,-0.0532 1.9e-4,1.656917 -1.3429,2.999727 -2.99981,2.999817 z"
       sodipodi:nodetypes="ccccsccssccccc" />
    <path
       d="m 115.36286,21.818855 8.00003,-2.143538 v -9.669178 c -1.3e-4,-2.2089496 -1.79081,-3.9996256 -3.99976,-3.9997556 h -5.1e-4 c -2.20895,1.3e-4 -3.99963,1.790806 -3.99976,3.9997556 z"
       style="font-variation-settings:'wght' 400;display:inline;fill:#4d4d4d;stroke-width:0.264583;fill-opacity:1"
       id="path20" />
    <path
       d="m 111.19882,50.006286 0.16377,3.99975 h 6.98097 1.0051 0.0145 c 2.20895,-1.29e-4 3.99963,-1.7908 3.99976,-3.99975 V 30.028173 l -8.00003,2.143538 v 14.887463 c -2.2e-4,-0.0179 -5.1e-4,-0.03563 -5.1e-4,-0.05323 1.9e-4,1.656919 -1.34291,2.999729 -2.99982,2.999819 z"
       style="font-variation-settings:'wght' 400;display:inline;fill:#4d4d4d;fill-opacity:1;stroke-width:0.264583"
       id="path19"
       sodipodi:nodetypes="ccccsccccccc" />
    <path
       id="path83-7"
       style="font-variation-settings:'wght' 400;display:inline;fill:url(#linearGradient3);fill-opacity:1;stroke-width:0.264583"
       d="m 48.398417,58.737533 -1.01214,4.00026 1.99968,2e-5 c 1.65689,-1.8e-4 3.00016,1.34249 3.00034,2.9993 v 37.000317 c -1.6e-4,2.20915 1.7906,4.00014 3.99975,4.00027 h 0.0109 7.98918 v -4.00027 h -0.99994 c -1.65689,1.8e-4 -3.00016,-1.34249 -3.00033,-2.999297 v -36.98999 c -9e-5,-2.21496 -1.79565,-4.01052 -4.01061,-4.01061 z"
       sodipodi:nodetypes="cccccscccccccc" />
    <path
       d="m 107.36232,34.315766 -7.999517,2.143022 v 13.546978 c -1.6e-4,2.20915 1.790607,4.00014 3.999757,4.00027 h 0.0109 7.98918 v -3.99975 0 -5.2e-4 h -0.99994 c -1.65689,1.8e-4 -3.00017,-1.34249 -3.00034,-2.999302 z"
       style="font-variation-settings:'wght' 400;display:inline;fill:#4d4d4d;fill-opacity:1;stroke-width:0.264583"
       id="path18"
       sodipodi:nodetypes="cccscccccccc" />
    <path
       d="m 95.374933,6.0058664 -1.322957,4.0161706 2.310494,-0.0159 c 1.65689,-1.8e-4 3.000153,1.342491 3.000333,2.999301 V 26.106449 L 107.36232,23.96291 V 10.016474 c -9e-5,-2.2149596 -1.79565,-4.0105176 -4.01061,-4.0106076 z"
       style="font-variation-settings:'wght' 400;display:inline;fill:#4d4d4d;fill-opacity:1;stroke-width:0.264583"
       id="path17"
       sodipodi:nodetypes="ccccccccc" />
    <path
       style="font-variation-settings:'wght' 400;fill:url(#linearGradient4);fill-opacity:1;stroke-width:0.264583"
       d="m 58.802839,109.05128 0,0 a 5.0000027,5.0000027 136.10337 0 0 5.095356,-4.90279 l 1.116881,-57.989249 a 5.0000001,5.0000001 46.103386 0 0 -4.90279,-5.095356 l 0,0 a 5,5 136.10339 0 0 -5.095356,4.902791 l -1.11688,57.989254 a 4.9999965,4.9999965 46.103372 0 0 4.902789,5.09535 z"
       id="path2-8-6"
       transform="rotate(73.896612,52.797801,77.05052)"
       sodipodi:nodetypes="ccccc"
       inkscape:original-d="m 53.803767,108.955 9.998145,0.19256 1.309447,-67.987392 -9.998146,-0.192565 z"
       inkscape:path-effect="#path-effect2-22-0-6-99-7" />
    <path
       d="m 107.36232,23.96291 v 10.352856 l 8.00054,-2.144055 V 21.818855 Z"
       style="font-variation-settings:'wght' 400;fill:#4d4d4d;stroke-width:0.264583;fill-opacity:1"
       id="path22" />
    <path
       d="m 123.36289,19.675317 v 10.352856 l 9.47901,-2.539896 a 5.0000001,5.0000001 0 0 0 3.5357,-6.123658 5,5 0 0 0 -6.12366,-3.535701 z"
       style="font-variation-settings:'wght' 400;fill:#4d4d4d;stroke-width:0.264583;fill-opacity:1"
       id="path21" />
    <path
       d="M 99.362803,36.458788 V 26.106449 l -8.000028,2.143538 v 10.352856 z"
       style="font-variation-settings:'wght' 400;fill:#4d4d4d;stroke-width:0.264583;fill-opacity:1"
       id="path16" />
    <path
       d="M 83.362747,40.746381 V 30.393526 l -9.132776,2.447395 a 4.9999965,4.9999965 0 0 0 -3.535185,6.123657 5.0000027,5.0000027 0 0 0 6.123657,3.535184 z"
       style="font-variation-settings:'wght' 400;fill:#4d4d4d;stroke-width:0.264583;fill-opacity:1"
       id="path13" />
    <text
       xml:space="preserve"
       style="font-style:normal;font-variant:normal;font-weight:bold;font-stretch:normal;font-size:70.35px;font-family:'Clash Display Variable';-inkscape-font-specification:'Clash Display Variable, Bold';font-variant-ligatures:normal;font-variant-caps:normal;font-variant-numeric:normal;font-variant-east-asian:normal;writing-mode:lr-tb;direction:ltr;fill:#333333;fill-opacity:1;stroke-width:0.301645"
       x="245.13522"
       y="184.83391"
       id="text1"
       transform="scale(0.87713465,1.1400758)"><tspan
         sodipodi:role="line"
         id="tspan1"
         style="font-style:normal;font-variant:normal;font-weight:bold;font-stretch:normal;font-size:70.35px;font-family:'Clash Display Variable';-inkscape-font-specification:'Clash Display Variable, Bold';font-variant-ligatures:normal;font-variant-caps:normal;font-variant-numeric:normal;font-variant-east-asian:normal;fill:#333333;fill-opacity:1;stroke-width:0.301645"
         x="245.13522"
         y="184.83391">streeps</tspan></text>
  </g>
  <path
     style="font-variation-settings:'wght' 400;fill:#333333;stroke-width:0.258652"
     id="rect91-4-9-1"
     width="80"
     height="80"
     x="100"
     y="148"
     inkscape:path-effect="#path-effect91-8-0-4-7"
     sodipodi:type="rect"
     d="m 112,148 h 56 a 11.999995,11.999995 45 0 1 12,11.99999 V 216 a 11.999996,11.999996 135 0 1 -12,12 H 112.00001 A 12.000006,12.000006 45 0 1 100,215.99999 V 160 a 12.000003,12.000003 135 0 1 12,-12 z"
     transform="matrix(1.35,0,0,1.3307292,-142.7603,-55.659851)" />
  <path
     style="font-variation-settings:'wght' 400;fill:#e6e6e6;stroke-width:0.258652"
     id="rect91-4-0-4"
     width="80"
     height="80"
     x="100"
     y="148"
     inkscape:path-effect="#path-effect91-8-0-6-2"
     sodipodi:type="rect"
     d="m 112,148 h 56 a 11.999995,11.999995 45 0 1 12,11.99999 V 216 a 11.999996,11.999996 135 0 1 -12,12 H 112.00001 A 12.000006,12.000006 45 0 1 100,215.99999 V 160 a 12.000003,12.000003 135 0 1 12,-12 z"
     transform="translate(-93.737377,5.1937495)" />
  <g
     inkscape:groupmode="layer"
     id="layer5"
     inkscape:label="Laag 4"
     transform="translate(-8.1804813,22.085322)">
    <path
       id="path2-7"
       style="font-variation-settings:'wght' 400;fill:url(#linearGradient109);fill-opacity:1;stroke-width:0.264583"
       d="m 46.281984,147.10834 h -7.97626 c -0.007,-2e-5 -0.0148,-2e-5 -0.0222,0 h -0.014 v 0 c -2.20915,1.3e-4 -3.99991,1.79112 -3.99976,4.00028 v 39.99962 c -1.6e-4,2.20916 1.79061,4.00015 3.99976,4.00028 2.20936,1.6e-4 4.00043,-1.79092 4.00027,-4.00028 v -37.00291 c 0.002,-1.65547 1.34395,-2.99662 2.99982,-2.99671 h 0.99994"
       sodipodi:nodetypes="ccccsccccccc" />
    <path
       id="path82-8"
       style="font-variation-settings:'wght' 400;display:inline;fill:url(#linearGradient110);fill-opacity:1;stroke-width:0.264583"
       d="m 62.105717,191.10862 0.1637,3.99991 h 6.980973 1.0051 0.0145 c 2.20895,-1.3e-4 3.99963,-1.7908 3.99976,-3.99975 v -40.00014 c -1.3e-4,-2.20895 -1.79081,-3.99963 -3.99976,-3.99976 h -5.1e-4 c -2.20895,1.3e-4 -3.999633,1.79081 -3.999763,3.99976 v 37.05303 c -2.2e-4,-0.0179 -5.2e-4,-0.0356 -5.2e-4,-0.0532 1.9e-4,1.65692 -1.3429,2.99973 -2.99981,2.99982 z"
       sodipodi:nodetypes="ccccsccssccccc" />
    <path
       id="path83-3"
       style="font-variation-settings:'wght' 400;display:inline;fill:url(#linearGradient111);fill-opacity:1;stroke-width:0.264583"
       d="m 46.281754,147.10836 -1.01214,4.00026 1.99968,2e-5 c 1.65689,-1.8e-4 3.00016,1.34249 3.00034,2.9993 v 37.00032 c -1.6e-4,2.20915 1.7906,4.00014 3.99975,4.00027 h 0.0109 7.989183 v -4.00027 h -0.99994 c -1.65689,1.8e-4 -3.00016,-1.34249 -3.00033,-2.9993 v -36.98999 c -9e-5,-2.21496 -1.795653,-4.01052 -4.010613,-4.01061 z"
       sodipodi:nodetypes="cccccscccccccc" />
    <path
       style="font-variation-settings:'wght' 400;fill:url(#linearGradient93-1);fill-opacity:1;stroke-width:0.264583"
       d="m 58.802839,109.05128 0,0 a 5.0000027,5.0000027 136.10337 0 0 5.095356,-4.90279 l 1.116881,-57.989249 a 5.0000001,5.0000001 46.103386 0 0 -4.90279,-5.095356 l 0,0 a 5,5 136.10339 0 0 -5.095356,4.902791 l -1.11688,57.989254 a 4.9999965,4.9999965 46.103372 0 0 4.902789,5.09535 z"
       id="path2-8-5"
       transform="rotate(73.896612,-7.0067577,119.82884)"
       sodipodi:nodetypes="ccccc"
       inkscape:original-d="m 53.803767,108.955 9.998145,0.19256 1.309447,-67.987392 -9.998146,-0.192565 z"
       inkscape:path-effect="#path-effect2-22-0-6-99-0-9" />
  </g>
</svg>
