<svg width="390" height="844" viewBox="0 0 390 844" fill="none" xmlns="http://www.w3.org/2000/svg">
<g id="Profiel" clip-path="url(#clip0_247_184)">
<rect width="390" height="844" fill="url(#paint0_linear_247_184)"/>
<g id="scroll" clip-path="url(#clip1_247_184)">
<g id="Vector" filter="url(#filter0_f_247_184)">
<path d="M394.534 -44.169C412.706 7.31607 331.171 75.9734 212.42 109.181C93.6693 142.389 -17.3287 127.573 -35.501 76.0878C-53.6732 24.6027 27.8618 -44.0546 146.613 -77.2626C265.363 -110.471 376.361 -95.6541 394.534 -44.169Z" fill="#FF0085"/>
<path d="M353.578 -32.716C367.105 5.60745 298.994 58.788 201.449 86.066C103.904 113.344 13.8621 104.39 0.335411 66.0664C-13.1913 27.7429 54.9192 -25.4376 152.465 -52.7157C250.01 -79.9937 340.051 -71.0395 353.578 -32.716Z" fill="#FF00F5"/>
<path d="M313.339 -24.5438C321.4 -1.70458 273.308 32.0866 205.922 50.9308C138.535 69.775 77.3728 66.5364 69.3114 43.6972C61.25 20.8579 109.342 -12.9332 176.729 -31.7775C244.115 -50.6217 305.278 -47.3831 313.339 -24.5438Z" fill="#F1F1F1"/>
<path d="M255.319 -8.31872C259.281 2.90736 232.314 20.4472 195.087 30.8577C157.86 41.2681 124.469 40.6069 120.506 29.3809C116.544 18.1548 143.511 0.614919 180.738 -9.79553C217.965 -20.206 251.356 -19.5448 255.319 -8.31872Z" fill="#00FE96"/>
</g>
<g id="InfoHeader">
<text id="Naam" fill="white" style="white-space: pre" xml:space="preserve" font-family="Unbounded" font-size="24" letter-spacing="0em"><tspan x="57" y="253">Hilbren van der Wal</tspan></text>
<text id="WijzigProfielFoto" fill="#00BEAE" style="white-space: pre" xml:space="preserve" font-family="Unbounded" font-size="14" letter-spacing="0em"><tspan x="137" y="204.75">Foto Wijzigen</tspan></text>
<circle id="Ellipse 11" cx="194.5" cy="129.5" r="52.5" fill="#D9D9D9"/>
</g>
<text id="Profiel_2" fill="white" style="white-space: pre" xml:space="preserve" font-family="Unbounded" font-size="24" letter-spacing="0em"><tspan x="21" y="54">Profiel</tspan></text>
<g id="Profile">
<text id="Subject" fill="#848484" style="white-space: pre" xml:space="preserve" font-family="Unbounded" font-size="14" letter-spacing="0em"><tspan x="22" y="304.75">PROFIEL</tspan></text>
<g id="Group 18">
<rect id="Rectangle 12" x="23" y="321" width="343" height="129" rx="25" fill="#4E4E4E" fill-opacity="0.2"/>
<g id="Namerow">
<circle id="Icon Placeholder" cx="66" cy="356" r="24" fill="#D9D9D9"/>
<text id="Naam_2" fill="white" style="white-space: pre" xml:space="preserve" font-family="Unbounded" font-size="14" letter-spacing="0em"><tspan x="100" y="361.75">Naam</tspan></text>
<text id="Hilbren van der wal" fill="#848484" style="white-space: pre" xml:space="preserve" font-family="Unbounded" font-size="12" letter-spacing="0em"><tspan x="214.34" y="361">Hilbren van der wal</tspan></text>
</g>
<g id="Emailrow">
<circle id="Icon Placeholder_2" cx="66" cy="411" r="24" fill="#D9D9D9"/>
<text id="mail" fill="white" style="white-space: pre" xml:space="preserve" font-family="Unbounded" font-size="14" letter-spacing="0em"><tspan x="101" y="416.75">E-mail</tspan></text>
<text id="hilbren.vd.wal@gmail.com" fill="#848484" style="white-space: pre" xml:space="preserve" font-family="Unbounded" font-size="12" letter-spacing="0em"><tspan x="167.746" y="416">hilbren.vd.wal@gmail.com</tspan></text>
</g>
</g>
</g>
<g id="Weergave">
<text id="Subject_2" fill="#848484" style="white-space: pre" xml:space="preserve" font-family="Unbounded" font-size="14" letter-spacing="0em"><tspan x="23" y="480.75">WEERGAVE</tspan></text>
<g id="Group 18_2">
<rect id="Rectangle 12_2" x="24" y="497" width="343" height="129" rx="25" fill="#4E4E4E" fill-opacity="0.2"/>
<g id="Namerow_2">
<circle id="Icon Placeholder_3" cx="67" cy="532" r="24" fill="#D9D9D9"/>
<text id="Thema" fill="white" style="white-space: pre" xml:space="preserve" font-family="Unbounded" font-size="14" letter-spacing="0em"><tspan x="101" y="537.75">Thema</tspan></text>
<text id="[OPTIES]" fill="#848484" style="white-space: pre" xml:space="preserve" font-family="Unbounded" font-size="12" letter-spacing="0em"><tspan x="288.875" y="537">[OPTIES]</tspan></text>
</g>
<g id="Emailrow_2">
<circle id="Icon Placeholder_4" cx="67" cy="587" r="24" fill="#D9D9D9"/>
<text id="mail_2" fill="white" style="white-space: pre" xml:space="preserve" font-family="Unbounded" font-size="14" letter-spacing="0em"><tspan x="102" y="592.75">Versie</tspan></text>
<text id="1.0.0" fill="#848484" style="white-space: pre" xml:space="preserve" font-family="Unbounded" font-size="12" letter-spacing="0em"><tspan x="318.078" y="592">1.0.0</tspan></text>
</g>
</g>
</g>
<g id="Uitloggen">
<g id="Group 18_3">
<rect id="Rectangle 12_3" x="24" y="643" width="343" height="50" rx="25" fill="#4E4E4E" fill-opacity="0.2"/>
<text id="Uitloggen_2" fill="#EB5466" style="white-space: pre" xml:space="preserve" font-family="Unbounded" font-size="16" letter-spacing="0em"><tspan x="150" y="674">Uitloggen</tspan></text>
</g>
</g>
</g>
</g>
<defs>
<filter id="filter0_f_247_184" x="-138.034" y="-194.985" width="635.102" height="421.889" filterUnits="userSpaceOnUse" color-interpolation-filters="sRGB">
<feFlood flood-opacity="0" result="BackgroundImageFix"/>
<feBlend mode="normal" in="SourceGraphic" in2="BackgroundImageFix" result="shape"/>
<feGaussianBlur stdDeviation="50" result="effect1_foregroundBlur_247_184"/>
</filter>
<linearGradient id="paint0_linear_247_184" x1="195" y1="-272" x2="195" y2="844" gradientUnits="userSpaceOnUse">
<stop stop-color="#0E0D1C"/>
<stop offset="1" stop-color="#202020"/>
</linearGradient>
<clipPath id="clip0_247_184">
<rect width="390" height="844" fill="white"/>
</clipPath>
<clipPath id="clip1_247_184">
<rect width="390" height="844" fill="white"/>
</clipPath>
</defs>
</svg>
