<svg width="350" height="120" viewBox="0 0 350 120" fill="none" xmlns="http://www.w3.org/2000/svg">
<mask id="mask0_122_27" style="mask-type:alpha" maskUnits="userSpaceOnUse" x="0" y="0" width="350" height="120">
<path d="M0 25C0 11.1929 11.1929 0 25 0H325C338.807 0 350 11.1929 350 25V120H0V25Z" fill="url(#paint0_linear_122_27)"/>
</mask>
<g mask="url(#mask0_122_27)">
<g filter="url(#filter0_f_122_27)">
<path d="M392.858 -103.257C407.768 -43.0022 322.596 29.9114 202.619 59.6004C82.6434 89.2894 -26.7038 64.5111 -41.6142 4.25665C-56.5246 -55.9978 28.6479 -128.911 148.624 -158.6C268.6 -188.289 377.947 -163.511 392.858 -103.257Z" fill="#FF0085"/>
<path d="M351.48 -93.0174C362.578 -48.1663 291.684 7.96257 193.132 32.35C94.58 56.7373 5.69071 40.1482 -5.40803 -4.70284C-16.5068 -49.5539 54.3879 -105.683 152.94 -130.07C251.491 -154.458 340.381 -137.868 351.48 -93.0174Z" fill="#FF00F5"/>
<path d="M311.013 -86.4858C317.627 -59.7564 267.798 -24.4305 199.717 -7.58313C131.635 9.26419 71.0819 1.25316 64.4675 -25.4763C57.8531 -52.2057 107.682 -87.5316 175.764 -104.379C243.845 -121.226 304.399 -113.215 311.013 -86.4858Z" fill="#00BEAE"/>
<path d="M252.394 -71.98C255.645 -58.8419 227.791 -40.6462 190.179 -31.339C152.568 -22.0317 119.442 -25.1373 116.191 -38.2755C112.94 -51.4137 140.794 -69.6093 178.406 -78.9166C216.017 -88.2238 249.143 -85.1182 252.394 -71.98Z" fill="#00FE96"/>
</g>
<path d="M20 50.5C20 35.3122 32.3122 23 47.5 23C62.6878 23 75 35.3122 75 50.5C75 65.6878 62.6878 78 47.5 78C32.3122 78 20 65.6878 20 50.5Z" fill="#F1F1F1"/>
<path d="M95.688 38H99.912V62H95.688V38ZM102.754 47.088V45.2L106.626 44.208L108.354 39.152H110.786V43.888H119.202V47.088H110.786V54.928C110.786 56.4427 111.106 57.5093 111.746 58.128C112.407 58.7253 113.474 59.024 114.946 59.024C115.884 59.024 116.716 58.928 117.442 58.736C118.167 58.5227 118.86 58.224 119.522 57.84V61.264C118.967 61.5413 118.178 61.808 117.154 62.064C116.151 62.32 115.116 62.448 114.05 62.448C112.279 62.448 110.85 62.16 109.762 61.584C108.674 60.9867 107.874 60.176 107.362 59.152C106.871 58.1067 106.626 56.912 106.626 55.568V47.088H102.754ZM131.501 38H135.725V62H131.501V38ZM151.021 38H155.245V62H151.021V38ZM133.773 48.048H153.037V51.76H133.773V48.048ZM169.912 62.448C167.714 62.448 165.784 62.0533 164.12 61.264C162.477 60.4533 161.186 59.3333 160.248 57.904C159.33 56.4747 158.872 54.8213 158.872 52.944C158.872 51.0453 159.33 49.392 160.248 47.984C161.186 46.5547 162.477 45.4453 164.12 44.656C165.784 43.8453 167.714 43.44 169.912 43.44C172.109 43.44 174.029 43.8453 175.672 44.656C177.336 45.4453 178.626 46.5547 179.544 47.984C180.482 49.392 180.952 51.0453 180.952 52.944C180.952 54.8213 180.482 56.4747 179.544 57.904C178.626 59.3333 177.336 60.4533 175.672 61.264C174.029 62.0533 172.109 62.448 169.912 62.448ZM169.912 59.184C171.32 59.184 172.525 58.928 173.528 58.416C174.552 57.904 175.341 57.1893 175.896 56.272C176.45 55.3333 176.728 54.224 176.728 52.944C176.728 51.664 176.45 50.5653 175.896 49.648C175.341 48.7093 174.552 47.984 173.528 47.472C172.525 46.96 171.32 46.704 169.912 46.704C168.525 46.704 167.32 46.96 166.296 47.472C165.272 47.984 164.482 48.7093 163.928 49.648C163.373 50.5653 163.096 51.664 163.096 52.944C163.096 54.224 163.373 55.3333 163.928 56.272C164.482 57.1893 165.272 57.904 166.296 58.416C167.32 58.928 168.525 59.184 169.912 59.184ZM188.493 58.384L187.277 57.936L198.797 43.888H203.597L188.205 62H184.333V37.36H188.493V58.384ZM193.645 53.04L196.557 50.416L204.141 62H199.245L193.645 53.04Z" fill="white"/>
<path d="M21.14 104.62C21.2333 103.7 21.5667 102.873 22.14 102.14C22.7267 101.393 23.54 100.807 24.58 100.38C25.6333 99.94 26.8867 99.72 28.34 99.72C29.6333 99.72 30.7533 99.8933 31.7 100.24C32.66 100.573 33.4 101.047 33.92 101.66C34.44 102.26 34.7 102.973 34.7 103.8C34.7 104.493 34.4933 105.12 34.08 105.68C33.68 106.227 33.0667 106.66 32.24 106.98C31.4133 107.3 30.38 107.46 29.14 107.46V107.08C30.3667 107.027 31.42 107.14 32.3 107.42C33.18 107.687 33.8533 108.1 34.32 108.66C34.8 109.207 35.04 109.88 35.04 110.68C35.04 111.573 34.7667 112.367 34.22 113.06C33.6733 113.753 32.88 114.3 31.84 114.7C30.8133 115.087 29.5533 115.28 28.06 115.28C26.6067 115.28 25.34 115.073 24.26 114.66C23.18 114.233 22.3333 113.64 21.72 112.88C21.12 112.12 20.7867 111.233 20.72 110.22H23.38C23.5 111.153 23.9533 111.873 24.74 112.38C25.5267 112.873 26.6333 113.12 28.06 113.12C29.4867 113.12 30.56 112.887 31.28 112.42C32 111.953 32.36 111.313 32.36 110.5C32.36 110.02 32.2333 109.62 31.98 109.3C31.74 108.967 31.3333 108.713 30.76 108.54C30.2 108.367 29.44 108.28 28.48 108.28H25.76V106.32H28.48C29.72 106.32 30.62 106.12 31.18 105.72C31.74 105.307 32.02 104.78 32.02 104.14C32.02 103.433 31.7067 102.88 31.08 102.48C30.4667 102.08 29.5067 101.88 28.2 101.88C26.92 101.88 25.9 102.12 25.14 102.6C24.3933 103.067 23.9467 103.74 23.8 104.62H21.14ZM53.3072 115L52.8672 110.8L53.3872 109.34L52.8672 107.9L53.3072 103.68H55.9872L55.3872 109.34L55.9872 115H53.3072ZM54.1072 109.34C53.8539 110.527 53.4339 111.567 52.8472 112.46C52.2605 113.353 51.5339 114.047 50.6672 114.54C49.8139 115.033 48.8605 115.28 47.8072 115.28C46.7005 115.28 45.7205 115.033 44.8672 114.54C44.0139 114.033 43.3472 113.333 42.8672 112.44C42.3872 111.547 42.1472 110.513 42.1472 109.34C42.1472 108.153 42.3872 107.12 42.8672 106.24C43.3472 105.347 44.0139 104.653 44.8672 104.16C45.7205 103.653 46.7005 103.4 47.8072 103.4C48.8605 103.4 49.8139 103.647 50.6672 104.14C51.5339 104.633 52.2605 105.327 52.8472 106.22C53.4472 107.1 53.8672 108.14 54.1072 109.34ZM44.7872 109.34C44.7872 110.1 44.9405 110.773 45.2472 111.36C45.5672 111.933 46.0005 112.387 46.5472 112.72C47.0939 113.04 47.7205 113.2 48.4272 113.2C49.1472 113.2 49.8139 113.04 50.4272 112.72C51.0405 112.387 51.5805 111.933 52.0472 111.36C52.5272 110.773 52.9072 110.1 53.1872 109.34C52.9072 108.58 52.5272 107.913 52.0472 107.34C51.5805 106.753 51.0405 106.3 50.4272 105.98C49.8139 105.647 49.1472 105.48 48.4272 105.48C47.7205 105.48 47.0939 105.647 46.5472 105.98C46.0005 106.3 45.5672 106.753 45.2472 107.34C44.9405 107.913 44.7872 108.58 44.7872 109.34ZM70.9894 110.54C70.856 111.473 70.4894 112.3 69.8894 113.02C69.2894 113.727 68.5227 114.28 67.5894 114.68C66.656 115.08 65.616 115.28 64.4694 115.28C63.1627 115.28 62.0094 115.033 61.0094 114.54C60.0227 114.033 59.2494 113.333 58.6894 112.44C58.1294 111.547 57.8494 110.513 57.8494 109.34C57.8494 108.167 58.1294 107.133 58.6894 106.24C59.2494 105.347 60.0227 104.653 61.0094 104.16C62.0094 103.653 63.1627 103.4 64.4694 103.4C65.616 103.4 66.656 103.6 67.5894 104C68.5227 104.4 69.2894 104.96 69.8894 105.68C70.4894 106.387 70.856 107.213 70.9894 108.16H68.3694C68.1827 107.307 67.736 106.64 67.0294 106.16C66.3227 105.68 65.4694 105.44 64.4694 105.44C63.6694 105.44 62.9694 105.6 62.3694 105.92C61.7694 106.227 61.3027 106.673 60.9694 107.26C60.6494 107.833 60.4894 108.527 60.4894 109.34C60.4894 110.14 60.6494 110.833 60.9694 111.42C61.3027 112.007 61.7694 112.46 62.3694 112.78C62.9694 113.087 63.6694 113.24 64.4694 113.24C65.4827 113.24 66.3427 112.993 67.0494 112.5C67.756 112.007 68.196 111.353 68.3694 110.54H70.9894ZM71.5648 105.68V104.5L73.9848 103.88L75.0648 100.72H76.5848V103.68H81.8448V105.68H76.5848V110.58C76.5848 111.527 76.7848 112.193 77.1848 112.58C77.5982 112.953 78.2648 113.14 79.1848 113.14C79.7715 113.14 80.2915 113.08 80.7448 112.96C81.1982 112.827 81.6315 112.64 82.0448 112.4V114.54C81.6982 114.713 81.2048 114.88 80.5648 115.04C79.9382 115.2 79.2915 115.28 78.6248 115.28C77.5182 115.28 76.6248 115.1 75.9448 114.74C75.2648 114.367 74.7648 113.86 74.4448 113.22C74.1382 112.567 73.9848 111.82 73.9848 110.98V105.68H71.5648ZM83.9386 103.6L85.2386 103.84L86.5386 103.6V115H83.9386V103.6ZM85.2386 102.18C84.7453 102.18 84.3386 102.047 84.0186 101.78C83.6986 101.5 83.5386 101.14 83.5386 100.7C83.5386 100.26 83.6986 99.9067 84.0186 99.64C84.3386 99.36 84.7453 99.22 85.2386 99.22C85.7453 99.22 86.1519 99.36 86.4586 99.64C86.7786 99.9067 86.9386 100.26 86.9386 100.7C86.9386 101.14 86.7786 101.5 86.4586 101.78C86.1519 102.047 85.7453 102.18 85.2386 102.18ZM95.4702 115.28C94.1502 115.28 92.9768 115.033 91.9502 114.54C90.9235 114.033 90.1168 113.333 89.5302 112.44C88.9435 111.547 88.6502 110.507 88.6502 109.32C88.6502 108.147 88.9235 107.12 89.4702 106.24C90.0302 105.347 90.7968 104.653 91.7702 104.16C92.7568 103.653 93.8835 103.4 95.1502 103.4C96.4168 103.4 97.5102 103.687 98.4302 104.26C99.3635 104.82 100.083 105.613 100.59 106.64C101.097 107.667 101.35 108.873 101.35 110.26H90.6902V108.28H100.05L98.7502 109.02C98.7102 108.273 98.5302 107.633 98.2102 107.1C97.9035 106.567 97.4835 106.16 96.9502 105.88C96.4302 105.587 95.8102 105.44 95.0902 105.44C94.3302 105.44 93.6635 105.593 93.0902 105.9C92.5302 106.207 92.0902 106.64 91.7702 107.2C91.4502 107.747 91.2902 108.4 91.2902 109.16C91.2902 110 91.4768 110.727 91.8502 111.34C92.2368 111.953 92.7768 112.427 93.4702 112.76C94.1768 113.08 95.0102 113.24 95.9702 113.24C96.8368 113.24 97.7235 113.107 98.6302 112.84C99.5368 112.56 100.337 112.173 101.03 111.68V113.56C100.337 114.093 99.4902 114.513 98.4902 114.82C97.5035 115.127 96.4968 115.28 95.4702 115.28ZM110.193 101.34C109.22 101.34 108.493 101.547 108.013 101.96C107.546 102.373 107.313 103.047 107.313 103.98V115H104.713V104.22C104.713 103.247 104.893 102.393 105.253 101.66C105.626 100.927 106.193 100.353 106.953 99.94C107.726 99.5267 108.706 99.32 109.893 99.32C110.466 99.32 110.973 99.3667 111.413 99.46C111.853 99.5533 112.286 99.6733 112.713 99.82V101.86C112.326 101.673 111.926 101.54 111.513 101.46C111.1 101.38 110.66 101.34 110.193 101.34ZM102.293 106.46V104.46H112.493V106.46H102.293Z" fill="white"/>
</g>
<defs>
<filter id="filter0_f_122_27" x="-97.4082" y="-225.252" width="546.06" height="351.505" filterUnits="userSpaceOnUse" color-interpolation-filters="sRGB">
<feFlood flood-opacity="0" result="BackgroundImageFix"/>
<feBlend mode="normal" in="SourceGraphic" in2="BackgroundImageFix" result="shape"/>
<feGaussianBlur stdDeviation="27.05" result="effect1_foregroundBlur_122_27"/>
</filter>
<linearGradient id="paint0_linear_122_27" x1="175" y1="0" x2="175" y2="120" gradientUnits="userSpaceOnUse">
<stop stop-color="#606060"/>
<stop offset="1" stop-color="#3D3D3D"/>
</linearGradient>
</defs>
</svg>
